<?xml version="1.0" encoding="utf-8"?>
<!-- Generator: Adobe Illustrator 18.1.1, SVG Export Plug-In . SVG Version: 6.00 Build 0)  -->
<!DOCTYPE svg PUBLIC "-//W3C//DTD SVG 1.1//EN" "http://www.w3.org/Graphics/SVG/1.1/DTD/svg11.dtd">
<svg version="1.1" id="Layer_1" xmlns="http://www.w3.org/2000/svg" xmlns:xlink="http://www.w3.org/1999/xlink" x="0px" y="0px"
	 viewBox="0 0 200.1 166.6" enable-background="new 0 0 200.1 166.6" xml:space="preserve">
<rect x="27.1" y="0" opacity="0.6" fill="#FDBD10" width="173" height="62.1"/>
<rect x="0" y="52.4" opacity="0.8" fill="#FDBD10" width="154.5" height="62.1"/>
<rect x="92.6" y="104.5" fill="#FDBD10" width="107.5" height="62.1"/>
<g>
	<path fill="#FFFFFF" d="M41.2,38h4.7v1.2c0,1.6,0.8,2.3,2.3,2.3s2.3-0.8,2.3-2.3v-1.9c0-2.2-1.6-4.4-4.7-6.6s-4.7-5-4.7-8.4v-1.9
		c0-4.7,2.3-7,7-7s7,2.3,7,7v1.2h-4.7v-1.2c0-1.6-0.8-2.3-2.3-2.3s-2.3,0.8-2.3,2.3v1.9c0,2.2,1.6,4.4,4.7,6.6s4.7,5,4.7,8.4v1.9
		c0,4.7-2.3,7-7,7s-7-2.3-7-7V38z"/>
	<path fill="#FFFFFF" d="M76.5,18.1h-4.2v28.1h-4.7V18.1h-4.2v-4.7h13.1V18.1z"/>
	<path fill="#FFFFFF" d="M83.4,46.2l3.8-32.8h8l3.8,32.8h-4.7l-0.9-7H89l-0.9,7H83.4z M91.1,18.3l-1.6,16.2h3.3L91.1,18.3z"/>
	<path fill="#FFFFFF" d="M115.5,35.7c0-1.6-0.8-2.3-2.3-2.3h-2.3v12.9h-4.7V13.4h7c4.7,0,7,2.3,7,7v5.9c0,2.3-1.2,3.9-3.5,4.7
		c2.3,0.9,3.5,2.5,3.5,4.7v10.5h-4.7V35.7z M110.8,18.1v10.5h2.3c1.6,0,2.3-0.8,2.3-2.3v-5.9c0-1.6-0.8-2.3-2.3-2.3H110.8z"/>
	<path fill="#FFFFFF" d="M141.4,18.1h-4.2v28.1h-4.7V18.1h-4.2v-4.7h13.1V18.1z"/>
	<path fill="#FFFFFF" d="M154.2,39.2c0,1.6,0.8,2.3,2.3,2.3s2.3-0.8,2.3-2.3V13.4h4.7v25.8c0,4.7-2.3,7-7,7s-7-2.3-7-7V13.4h4.7
		V39.2z"/>
	<path fill="#FFFFFF" d="M171.7,46.2V13.4h7c4.7,0,7,2.3,7,7v5.9c0,4.7-2.3,7-7,7h-2.3v12.9H171.7z M176.4,18.1v10.5h2.3
		c1.6,0,2.3-0.8,2.3-2.3v-5.9c0-1.6-0.8-2.3-2.3-2.3H176.4z"/>
</g>
<g>
	<path fill="#FFFFFF" d="M30.2,74.2v1.2h-4.7v-1.2c0-1.6-0.8-2.3-2.3-2.3s-2.3,0.8-2.3,2.3v19.7c0,1.6,0.8,2.3,2.3,2.3
		s2.3-0.8,2.3-2.3v-1.2h4.7v1.2c0,4.7-2.3,7-7,7s-7-2.3-7-7V74.2c0-4.7,2.3-7,7-7S30.2,69.5,30.2,74.2z"/>
	<path fill="#FFFFFF" d="M37.1,100.5l3.8-32.8h8l3.8,32.8h-4.7l-0.9-7h-4.2l-0.9,7H37.1z M44.9,72.6l-1.6,16.2h3.3L44.9,72.6z"/>
	<path fill="#FFFFFF" d="M69.3,89.9c0-1.6-0.8-2.3-2.3-2.3h-2.3v12.9h-4.7V67.6h7c4.7,0,7,2.3,7,7v5.9c0,2.3-1.2,3.9-3.5,4.7
		c2.3,0.9,3.5,2.5,3.5,4.7v10.5h-4.7V89.9z M64.6,72.3v10.5h2.3c1.6,0,2.3-0.8,2.3-2.3v-5.9c0-1.6-0.8-2.3-2.3-2.3H64.6z"/>
	<path fill="#FFFFFF" d="M82,67.6h11.7v4.7h-7v9.4h5.9v4.7h-5.9v9.4h7v4.7H82V67.6z"/>
	<path fill="#FFFFFF" d="M101.9,67.6h11.7v4.7h-7v9.4h5.9v4.7h-5.9v9.4h7v4.7h-11.7V67.6z"/>
	<path fill="#FFFFFF" d="M131.1,89.9c0-1.6-0.8-2.3-2.3-2.3h-2.3v12.9h-4.7V67.6h7c4.7,0,7,2.3,7,7v5.9c0,2.3-1.2,3.9-3.5,4.7
		c2.3,0.9,3.5,2.5,3.5,4.7v10.5h-4.7V89.9z M126.4,72.3v10.5h2.3c1.6,0,2.3-0.8,2.3-2.3v-5.9c0-1.6-0.8-2.3-2.3-2.3H126.4z"/>
</g>
<g>
	<path fill="#FFFFFF" d="M112.8,119h11.7v4.7h-7v9.4h5.9v4.7h-5.9v14.1h-4.7V119z"/>
	<path fill="#FFFFFF" d="M131.5,151.8l3.8-32.8h8l3.8,32.8h-4.7l-0.9-7h-4.2l-0.9,7H131.5z M139.2,123.9l-1.6,16.2h3.3L139.2,123.9z
		"/>
	<path fill="#FFFFFF" d="M158.9,119v32.8h-4.7V119H158.9z"/>
	<path fill="#FFFFFF" d="M176.3,141.2c0-1.6-0.8-2.3-2.3-2.3h-2.3v12.9H167V119h7c4.7,0,7,2.3,7,7v5.9c0,2.3-1.2,3.9-3.5,4.7
		c2.3,0.9,3.5,2.5,3.5,4.7v10.5h-4.7V141.2z M171.7,123.7v10.5h2.3c1.6,0,2.3-0.8,2.3-2.3V126c0-1.6-0.8-2.3-2.3-2.3H171.7z"/>
</g>
<polyline fill="none" stroke="#FFFFFF" stroke-width="2" stroke-miterlimit="10" points="33,62.2 27.1,62.2 27.1,54.9 "/>
<polyline fill="none" stroke="#FFFFFF" stroke-width="2" stroke-miterlimit="10" points="92.8,111.3 92.8,104.9 99.3,104.9 "/>
<polyline fill="none" stroke="#FFFFFF" stroke-width="2" stroke-miterlimit="10" points="148.1,52.4 154.5,52.4 154.5,59.2 "/>
</svg>
