<?xml version="1.0" encoding="utf-8"?>
<!-- Generator: Adobe Illustrator 18.1.1, SVG Export Plug-In . SVG Version: 6.00 Build 0)  -->
<!DOCTYPE svg PUBLIC "-//W3C//DTD SVG 1.1//EN" "http://www.w3.org/Graphics/SVG/1.1/DTD/svg11.dtd">
<svg version="1.1" id="Layer_1" xmlns="http://www.w3.org/2000/svg" xmlns:xlink="http://www.w3.org/1999/xlink" x="0px" y="0px"
	 viewBox="0 0 941.4 200" enable-background="new 0 0 941.4 200" xml:space="preserve">
<rect x="44.4" y="0.1" fill="#22B3E8" width="44.4" height="199.8"/>
<rect x="0" y="0.1" fill="#22B3E8" width="133.2" height="34.9"/>
<rect x="462.1" y="0.1" fill="#22B3E8" width="44.4" height="199.7"/>
<rect x="560.4" y="0.1" fill="#22B3E8" width="44.4" height="85.5"/>
<rect x="560.4" y="120.6" fill="#22B3E8" width="44.4" height="79.3"/>
<rect x="462.9" y="85.7" fill="#22B3E8" width="97.5" height="34.9"/>
<rect x="168.1" y="0.4" fill="#22B3E8" width="44.4" height="199.5"/>
<rect x="168.1" y="0.1" fill="#22B3E8" width="110.9" height="34.9"/>
<rect x="168.1" y="85.8" fill="#22B3E8" width="110.9" height="34.9"/>
<rect x="168.1" y="165" fill="#22B3E8" width="110.9" height="34.9"/>
<rect x="658" y="0.1" fill="#5E50A1" width="44.4" height="85.5"/>
<rect x="658" y="120.7" fill="#5E50A1" width="44.4" height="79.2"/>
<rect x="658" y="165" fill="#5E50A1" width="110.9" height="34.9"/>
<path fill="#22B3E8" d="M428.8,32.6V1.7c0,0-38.8-7.7-78.7,11.1c-39.4,18.5-50.8,53-50.8,82.2c0,20.8,2.6,71.7,50.7,93.3
	c35.2,15.7,78.8,11.1,78.8,11.1v-30.9c0,0-80.1,10-80.1-67.9C348.8,22.6,428.8,32.6,428.8,32.6"/>
<rect x="807.3" y="120.7" fill="#5E50A1" width="111" height="29.8"/>
<polygon fill="#5E50A1" points="838.7,0 784,199.9 828.4,199.9 871.2,0 "/>
<polygon fill="#5E50A1" points="886.7,0 941.4,199.9 897,199.9 854.2,0 "/>
</svg>
