<?xml version="1.0" encoding="utf-8"?>
<!-- Generator: Adobe Illustrator 19.0.0, SVG Export Plug-In . SVG Version: 6.00 Build 0)  -->
<svg version="1.1" xmlns="http://www.w3.org/2000/svg" xmlns:xlink="http://www.w3.org/1999/xlink" x="0px" y="0px"
	 viewBox="0 0 1024 1024" enable-background="new 0 0 1024 1024" xml:space="preserve">
<g id="Stroke" display="none">
	<g id="XMLID_16_" display="inline">
		<path id="XMLID_37_" fill="#343A45" d="M512,990.2c-5.7,0-11.3-1.5-16.4-4.4L113.1,762.8c-10-5.8-16.1-16.5-16.1-28.1V288.9
			c0-11.6,6.1-22.3,16.1-28.1L495.6,37.9c5.1-2.9,10.7-4.4,16.4-4.4c5.7,0,11.3,1.5,16.4,4.4l382.5,222.9
			c10,5.8,16.1,16.5,16.1,28.1v445.8c0,11.6-6.1,22.3-16.1,28.1L528.4,985.8C523.3,988.7,517.7,990.2,512,990.2z"/>
		<path id="XMLID_34_" fill="#E3B168" d="M511.5,66L894,288.9v445.8L511.5,957.7L129,734.8V288.9L511.5,66 M512,1
			c-11.3,0-22.6,2.9-32.7,8.8L96.5,232.8c-20,11.6-32.5,33-32.5,56.2v445.8c0,23.1,12.5,44.5,32.5,56.2l382.6,222.9
			c10.1,5.9,21.5,8.8,32.8,8.8s22.6-2.9,32.8-8.8L927,790.9c20-11.6,32-33,32-56.2V288.9c0-23.1-12-44.5-32-56.2L544.6,9.8
			C534.5,3.9,523.3,1,512,1L512,1z"/>
	</g>
	<g id="XMLID_1_" display="inline">
		<g id="XMLID_3_">
			<path id="XMLID_7_" fill="#E3B168" d="M698,571.8H334c-2.5,0-4.5-2-4.5-4.5v-104c0-2.5,2-4.5,4.5-4.5h364c2.5,0,4.5,2,4.5,4.5
				v104C702.5,569.7,700.5,571.8,698,571.8z"/>
			<path id="XMLID_6_" fill="#E3B168" d="M455,746.8H334c-2.5,0-4.5-2-4.5-4.5v-104c0-2.5,2-4.5,4.5-4.5h121c2.5,0,4.5,2,4.5,4.5
				v104C459.5,744.7,457.5,746.8,455,746.8z"/>
			<path id="XMLID_5_" fill="#E3B168" d="M697.8,746.8h-121c-2.5,0-4.5-2-4.5-4.5v-104c0-2.5,2-4.5,4.5-4.5h121c2.5,0,4.5,2,4.5,4.5
				v104C702.3,744.7,700.3,746.8,697.8,746.8z"/>
			<path id="XMLID_4_" fill="#E3B168" d="M698,396.8H577c-2.5,0-4.5-2-4.5-4.5v-104c0-2.5,2-4.5,4.5-4.5h121c2.5,0,4.5,2,4.5,4.5
				v104C702.5,394.7,700.5,396.8,698,396.8z"/>
		</g>
		<path id="XMLID_2_" fill="#D1585A" d="M452.2,355.6l-116.9,31.1c-2.4,0.6-4.9-0.8-5.5-3.2L303.1,283c-0.6-2.4,0.8-4.9,3.2-5.5
			l116.9-31.1c2.4-0.6,4.9,0.8,5.5,3.2L455.4,350C456.1,352.4,454.6,354.9,452.2,355.6z"/>
	</g>
</g>
<g id="Expanded">
	<g id="XMLID_8_">
		<g id="XMLID_13_">
			<path id="XMLID_21_" fill="#343A45" d="M512,990.2c-5.7,0-11.3-1.5-16.4-4.4L113.1,762.8c-10-5.8-16.1-16.5-16.1-28.1V288.9
				c0-11.6,6.1-22.3,16.1-28.1L495.6,37.9c5.1-2.9,10.7-4.4,16.4-4.4c5.7,0,11.3,1.5,16.4,4.4l382.5,222.9
				c10,5.8,16.1,16.5,16.1,28.1v445.8c0,11.6-6.1,22.3-16.1,28.1L528.4,985.8C523.3,988.7,517.7,990.2,512,990.2z"/>
			<path id="XMLID_18_" fill="#E3B168" d="M511.5,66L894,288.9v445.8L511.5,957.7L129,734.8V288.9L511.5,66 M512,1
				c-11.3,0-22.6,2.9-32.7,8.8L96.5,232.8c-20,11.6-32.5,33-32.5,56.2v445.8c0,23.1,12.5,44.5,32.5,56.2l382.6,222.9
				c10.1,5.9,21.5,8.8,32.8,8.8s22.6-2.9,32.8-8.8L927,790.9c20-11.6,32-33,32-56.2V288.9c0-23.1-12-44.5-32-56.2L544.6,9.8
				C534.5,3.9,523.3,1,512,1L512,1z"/>
		</g>
		<g id="XMLID_9_">
			<g id="XMLID_10_">
				<path id="XMLID_11_" fill="#E3B168" d="M698,571.8H334c-2.5,0-4.5-2-4.5-4.5v-104c0-2.5,2-4.5,4.5-4.5h364c2.5,0,4.5,2,4.5,4.5
					v104C702.5,569.7,700.5,571.8,698,571.8z"/>
				<path id="XMLID_12_" fill="#E3B168" d="M455,746.8H334c-2.5,0-4.5-2-4.5-4.5v-104c0-2.5,2-4.5,4.5-4.5h121c2.5,0,4.5,2,4.5,4.5
					v104C459.5,744.7,457.5,746.8,455,746.8z"/>
				<path id="XMLID_14_" fill="#E3B168" d="M697.8,746.8h-121c-2.5,0-4.5-2-4.5-4.5v-104c0-2.5,2-4.5,4.5-4.5h121
					c2.5,0,4.5,2,4.5,4.5v104C702.3,744.7,700.3,746.8,697.8,746.8z"/>
				<path id="XMLID_15_" fill="#E3B168" d="M698,396.8H577c-2.5,0-4.5-2-4.5-4.5v-104c0-2.5,2-4.5,4.5-4.5h121c2.5,0,4.5,2,4.5,4.5
					v104C702.5,394.7,700.5,396.8,698,396.8z"/>
			</g>
			<path id="XMLID_17_" fill="#D1585A" d="M452.2,355.6l-116.9,31.1c-2.4,0.6-4.9-0.8-5.5-3.2L303.1,283c-0.6-2.4,0.8-4.9,3.2-5.5
				l116.9-31.1c2.4-0.6,4.9,0.8,5.5,3.2L455.4,350C456.1,352.4,454.6,354.9,452.2,355.6z"/>
		</g>
	</g>
</g>
</svg>
