<?xml version="1.0" standalone="no"?>
<!DOCTYPE svg PUBLIC "-//W3C//DTD SVG 1.1//EN" "http://www.w3.org/Graphics/SVG/1.1/DTD/svg11.dtd">
<svg width="100%" height="100%" viewBox="0 0 406 450" version="1.1" xmlns="http://www.w3.org/2000/svg" xmlns:xlink="http://www.w3.org/1999/xlink" xml:space="preserve" style="fill-rule:evenodd;clip-rule:evenodd;stroke-linejoin:round;stroke-miterlimit:1.41421;">
    <g>
        <g>
            <g>
                <path d="M265.024,147.628C265.024,147.03 264.539,146.545 263.941,146.545L145.823,146.545C145.226,146.545 144.741,147.03 144.741,147.628L144.741,181.547C144.741,182.145 145.226,182.63 145.823,182.63L263.941,182.63C264.539,182.63 265.024,182.145 265.024,181.547L265.024,147.628Z" style="fill:rgb(227,176,104);"/>
                <path d="M186.84,204.762C186.84,204.164 186.355,203.679 185.757,203.679L145.823,203.679C145.226,203.679 144.741,204.164 144.741,204.762L144.741,238.682C144.741,239.28 145.226,239.764 145.823,239.764L185.757,239.764C186.355,239.764 186.84,239.28 186.84,238.682L186.84,204.762Z" style="fill:rgb(227,176,104);"/>
                <path d="M265.024,204.762C265.024,204.164 264.539,203.679 263.941,203.679L224.007,203.679C223.409,203.679 222.925,204.164 222.925,204.762L222.925,238.682C222.925,239.28 223.409,239.764 224.007,239.764L263.941,239.764C264.539,239.764 265.024,239.28 265.024,238.682L265.024,204.762Z" style="fill:rgb(227,176,104);"/>
                <path d="M176.419,77.8543C176.265,77.2766 175.672,76.9334 175.094,77.0877L136.512,87.3909C135.934,87.5451 135.591,88.1384 135.745,88.7161L144.497,121.487C144.651,122.065 145.245,122.408 145.822,122.254L184.404,111.951C184.982,111.797 185.325,111.203 185.171,110.626L176.419,77.8543Z" style="fill:rgb(209,87,90);"/>
                <path d="M265.024,90.4932C265.024,89.8954 264.539,89.4107 263.941,89.4107L224.007,89.4107C223.409,89.4107 222.925,89.8954 222.925,90.4932L222.925,124.413C222.925,125.011 223.409,125.496 224.007,125.496L263.941,125.496C264.539,125.496 265.024,125.011 265.024,124.413L265.024,90.4932Z" style="fill:rgb(227,176,104);"/>
            </g>
            <path d="M203.715,326.891C201.521,326.602 201.509,326.598 199.465,325.752L65.2784,248.279C64.6916,247.829 64.041,247.451 63.518,246.928C62.463,245.873 61.7042,244.559 61.318,243.118C61.1266,242.403 61.125,241.651 61.0284,240.918L61.0284,85.9727C61.125,85.2393 61.1266,84.4871 61.318,83.7727C61.7042,82.3315 62.463,81.0173 63.518,79.9622C64.041,79.4392 64.6916,79.0617 65.2784,78.6114L199.465,1.13878C200.148,0.855733 200.801,0.481066 201.515,0.28963C202.956,-0.0965435 204.474,-0.0965435 205.915,0.28963C206.629,0.481066 207.282,0.855733 207.965,1.13878L342.152,78.6114C342.738,79.0617 343.389,79.4392 343.912,79.9622C344.967,81.0173 345.726,82.3315 346.112,83.7727C346.303,84.4871 346.305,85.2393 346.402,85.9727L346.402,240.918C346.305,241.651 346.303,242.403 346.112,243.118C345.726,244.559 344.967,245.873 343.912,246.928C343.389,247.451 342.738,247.829 342.152,248.279L207.965,325.752L205.915,326.601C205.182,326.698 204.448,326.794 203.715,326.891ZM203.715,308.576L329.402,236.01L329.402,90.8801L203.715,18.315L78.0284,90.8801L78.0284,236.01C119.924,260.199 161.819,284.387 203.715,308.576Z" style="fill:rgb(227,176,104);fill-rule:nonzero;"/>
        </g>
        <g>
            <path d="M29.7,435.803C29.7,437.903 29.31,439.853 28.53,441.653C27.75,443.453 26.685,445.028 25.335,446.378C23.985,447.728 22.41,448.793 20.61,449.573C18.81,450.353 16.89,450.743 14.85,450.743C12.81,450.743 10.89,450.353 9.09,449.573C7.29,448.793 5.715,447.728 4.365,446.378C3.015,445.028 1.95,443.453 1.17,441.653C0.39,439.853 0,437.903 0,435.803L0,386.123L9.18,386.123L9.18,434.903C9.18,437.183 9.72,438.863 10.8,439.943C11.88,441.023 13.23,441.563 14.85,441.563C16.47,441.563 17.82,441.023 18.9,439.943C19.98,438.863 20.52,437.183 20.52,434.903L20.52,386.123L29.7,386.123L29.7,435.803Z" style="fill:rgb(248,248,248);fill-rule:nonzero;"/>
            <path d="M70.74,404.573L61.56,404.573L61.56,402.503C61.56,400.403 61.065,398.588 60.075,397.058C59.085,395.528 57.42,394.763 55.08,394.763C53.82,394.763 52.785,395.003 51.975,395.483C51.165,395.963 50.535,396.578 50.085,397.328C49.635,398.078 49.32,398.948 49.14,399.938C48.96,400.928 48.87,401.963 48.87,403.043C48.87,404.303 48.915,405.368 49.005,406.238C49.095,407.108 49.32,407.858 49.68,408.488C50.04,409.118 50.565,409.673 51.255,410.153C51.945,410.633 52.89,411.113 54.09,411.593L61.11,414.383C63.15,415.163 64.8,416.078 66.06,417.128C67.32,418.178 68.295,419.408 68.985,420.818C69.675,422.228 70.14,423.848 70.38,425.678C70.62,427.508 70.74,429.593 70.74,431.933C70.74,434.633 70.47,437.138 69.93,439.448C69.39,441.758 68.505,443.738 67.275,445.388C66.045,447.038 64.41,448.343 62.37,449.303C60.33,450.263 57.84,450.743 54.9,450.743C52.68,450.743 50.61,450.353 48.69,449.573C46.77,448.793 45.12,447.728 43.74,446.378C42.36,445.028 41.265,443.423 40.455,441.563C39.645,439.703 39.24,437.693 39.24,435.533L39.24,432.113L48.42,432.113L48.42,434.993C48.42,436.673 48.915,438.188 49.905,439.538C50.895,440.888 52.56,441.563 54.9,441.563C56.46,441.563 57.675,441.338 58.545,440.888C59.415,440.438 60.075,439.808 60.525,438.998C60.975,438.188 61.26,437.183 61.38,435.983C61.5,434.783 61.56,433.463 61.56,432.023C61.56,430.343 61.5,428.963 61.38,427.883C61.26,426.803 61.005,425.933 60.615,425.273C60.225,424.613 59.685,424.073 58.995,423.653C58.305,423.233 57.39,422.783 56.25,422.303L49.68,419.603C45.72,417.983 43.065,415.838 41.715,413.168C40.365,410.498 39.69,407.153 39.69,403.133C39.69,400.733 40.02,398.453 40.68,396.293C41.34,394.133 42.315,392.273 43.605,390.713C44.895,389.153 46.53,387.908 48.51,386.978C50.49,386.048 52.8,385.583 55.44,385.583C57.72,385.583 59.805,386.003 61.695,386.843C63.585,387.683 65.205,388.793 66.555,390.173C67.905,391.553 68.94,393.098 69.66,394.808C70.38,396.518 70.74,398.273 70.74,400.073L70.74,404.573Z" style="fill:rgb(248,248,248);fill-rule:nonzero;"/>
            <path d="M109.44,435.893C109.44,437.873 109.065,439.763 108.315,441.563C107.565,443.363 106.53,444.938 105.21,446.288C103.89,447.638 102.345,448.718 100.575,449.528C98.805,450.338 96.9,450.743 94.86,450.743C93.12,450.743 91.35,450.503 89.55,450.023C87.75,449.543 86.13,448.718 84.69,447.548C83.25,446.378 82.065,444.833 81.135,442.913C80.205,440.993 79.74,438.563 79.74,435.623L79.74,400.343C79.74,398.243 80.1,396.293 80.82,394.493C81.54,392.693 82.56,391.133 83.88,389.813C85.2,388.493 86.775,387.458 88.605,386.708C90.435,385.958 92.46,385.583 94.68,385.583C96.78,385.583 98.73,385.958 100.53,386.708C102.33,387.458 103.89,388.508 105.21,389.858C106.53,391.208 107.565,392.828 108.315,394.718C109.065,396.608 109.44,398.663 109.44,400.883L109.44,404.483L100.26,404.483L100.26,401.423C100.26,399.623 99.75,398.063 98.73,396.743C97.71,395.423 96.33,394.763 94.59,394.763C92.31,394.763 90.795,395.468 90.045,396.878C89.295,398.288 88.92,400.073 88.92,402.233L88.92,434.993C88.92,436.853 89.325,438.413 90.135,439.673C90.945,440.933 92.4,441.563 94.5,441.563C95.1,441.563 95.745,441.458 96.435,441.248C97.125,441.038 97.755,440.693 98.325,440.213C98.895,439.733 99.36,439.073 99.72,438.233C100.08,437.393 100.26,436.343 100.26,435.083L100.26,431.933L109.44,431.933L109.44,435.893Z" style="fill:rgb(248,248,248);fill-rule:nonzero;"/>
            <path d="M139.05,386.123L148.23,386.123L148.23,413.573L159.57,413.573L159.57,386.123L168.75,386.123L168.75,450.203L159.57,450.203L159.57,421.673L148.23,421.673L148.23,450.203L139.05,450.203L139.05,386.123Z" style="fill:rgb(248,248,248);fill-rule:nonzero;"/>
            <path d="M194.13,404.573L193.95,404.573L189.45,427.793L198.63,427.793L194.13,404.573ZM190.26,386.123L197.91,386.123L212.22,450.203L203.04,450.203L200.34,436.433L187.83,436.433L185.13,450.203L175.95,450.203L190.26,386.123Z" style="fill:rgb(248,248,248);fill-rule:nonzero;"/>
            <path d="M248.58,435.893C248.58,437.873 248.205,439.763 247.455,441.563C246.705,443.363 245.67,444.938 244.35,446.288C243.03,447.638 241.485,448.718 239.715,449.528C237.945,450.338 236.04,450.743 234,450.743C232.26,450.743 230.49,450.503 228.69,450.023C226.89,449.543 225.27,448.718 223.83,447.548C222.39,446.378 221.205,444.833 220.275,442.913C219.345,440.993 218.88,438.563 218.88,435.623L218.88,400.343C218.88,398.243 219.24,396.293 219.96,394.493C220.68,392.693 221.7,391.133 223.02,389.813C224.34,388.493 225.915,387.458 227.745,386.708C229.575,385.958 231.6,385.583 233.82,385.583C235.92,385.583 237.87,385.958 239.67,386.708C241.47,387.458 243.03,388.508 244.35,389.858C245.67,391.208 246.705,392.828 247.455,394.718C248.205,396.608 248.58,398.663 248.58,400.883L248.58,404.483L239.4,404.483L239.4,401.423C239.4,399.623 238.89,398.063 237.87,396.743C236.85,395.423 235.47,394.763 233.73,394.763C231.45,394.763 229.935,395.468 229.185,396.878C228.435,398.288 228.06,400.073 228.06,402.233L228.06,434.993C228.06,436.853 228.465,438.413 229.275,439.673C230.085,440.933 231.54,441.563 233.64,441.563C234.24,441.563 234.885,441.458 235.575,441.248C236.265,441.038 236.895,440.693 237.465,440.213C238.035,439.733 238.5,439.073 238.86,438.233C239.22,437.393 239.4,436.343 239.4,435.083L239.4,431.933L248.58,431.933L248.58,435.893Z" style="fill:rgb(248,248,248);fill-rule:nonzero;"/>
            <path d="M258.75,386.123L267.93,386.123L267.93,415.373L268.11,415.373L281.52,386.123L290.7,386.123L278.19,411.773L293.04,450.203L283.32,450.203L272.88,421.763L267.93,431.033L267.93,450.203L258.75,450.203L258.75,386.123Z" style="fill:rgb(248,248,248);fill-rule:nonzero;"/>
            <path d="M299.79,386.123L327.15,386.123L327.15,394.763L308.97,394.763L308.97,413.573L324.81,413.573L324.81,422.213L308.97,422.213L308.97,441.023L327.15,441.023L327.15,450.203L299.79,450.203L299.79,386.123Z" style="fill:rgb(248,248,248);fill-rule:nonzero;"/>
            <path d="M344.97,414.743L350.19,414.743C351.81,414.743 353.1,414.518 354.06,414.068C355.02,413.618 355.755,412.973 356.265,412.133C356.775,411.293 357.12,410.258 357.3,409.028C357.48,407.798 357.57,406.373 357.57,404.753C357.57,403.133 357.48,401.708 357.3,400.478C357.12,399.248 356.745,398.198 356.175,397.328C355.605,396.458 354.81,395.813 353.79,395.393C352.77,394.973 351.42,394.763 349.74,394.763L344.97,394.763L344.97,414.743ZM335.79,386.123L350.55,386.123C361.35,386.123 366.75,392.393 366.75,404.933C366.75,408.653 366.165,411.848 364.995,414.518C363.825,417.188 361.77,419.333 358.83,420.953L368.73,450.203L359.01,450.203L350.46,422.843L344.97,422.843L344.97,450.203L335.79,450.203L335.79,386.123Z" style="fill:rgb(248,248,248);fill-rule:nonzero;"/>
            <path d="M406.53,404.573L397.35,404.573L397.35,402.503C397.35,400.403 396.855,398.588 395.865,397.058C394.875,395.528 393.21,394.763 390.87,394.763C389.61,394.763 388.575,395.003 387.765,395.483C386.955,395.963 386.325,396.578 385.875,397.328C385.425,398.078 385.11,398.948 384.93,399.938C384.75,400.928 384.66,401.963 384.66,403.043C384.66,404.303 384.705,405.368 384.795,406.238C384.885,407.108 385.11,407.858 385.47,408.488C385.83,409.118 386.355,409.673 387.045,410.153C387.735,410.633 388.68,411.113 389.88,411.593L396.9,414.383C398.94,415.163 400.59,416.078 401.85,417.128C403.11,418.178 404.085,419.408 404.775,420.818C405.465,422.228 405.93,423.848 406.17,425.678C406.41,427.508 406.53,429.593 406.53,431.933C406.53,434.633 406.26,437.138 405.72,439.448C405.18,441.758 404.295,443.738 403.065,445.388C401.835,447.038 400.2,448.343 398.16,449.303C396.12,450.263 393.63,450.743 390.69,450.743C388.47,450.743 386.4,450.353 384.48,449.573C382.56,448.793 380.91,447.728 379.53,446.378C378.15,445.028 377.055,443.423 376.245,441.563C375.435,439.703 375.03,437.693 375.03,435.533L375.03,432.113L384.21,432.113L384.21,434.993C384.21,436.673 384.705,438.188 385.695,439.538C386.685,440.888 388.35,441.563 390.69,441.563C392.25,441.563 393.465,441.338 394.335,440.888C395.205,440.438 395.865,439.808 396.315,438.998C396.765,438.188 397.05,437.183 397.17,435.983C397.29,434.783 397.35,433.463 397.35,432.023C397.35,430.343 397.29,428.963 397.17,427.883C397.05,426.803 396.795,425.933 396.405,425.273C396.015,424.613 395.475,424.073 394.785,423.653C394.095,423.233 393.18,422.783 392.04,422.303L385.47,419.603C381.51,417.983 378.855,415.838 377.505,413.168C376.155,410.498 375.48,407.153 375.48,403.133C375.48,400.733 375.81,398.453 376.47,396.293C377.13,394.133 378.105,392.273 379.395,390.713C380.685,389.153 382.32,387.908 384.3,386.978C386.28,386.048 388.59,385.583 391.23,385.583C393.51,385.583 395.595,386.003 397.485,386.843C399.375,387.683 400.995,388.793 402.345,390.173C403.695,391.553 404.73,393.098 405.45,394.808C406.17,396.518 406.53,398.273 406.53,400.073L406.53,404.573Z" style="fill:rgb(248,248,248);fill-rule:nonzero;"/>
        </g>
    </g>
</svg>
