<?xml version="1.0" encoding="utf-8"?>
<!-- Generator: Adobe Illustrator 18.1.1, SVG Export Plug-In . SVG Version: 6.00 Build 0)  -->
<!DOCTYPE svg PUBLIC "-//W3C//DTD SVG 1.1//EN" "http://www.w3.org/Graphics/SVG/1.1/DTD/svg11.dtd">
<svg version="1.1" id="Layer_1" xmlns="http://www.w3.org/2000/svg" xmlns:xlink="http://www.w3.org/1999/xlink" x="0px" y="0px"
	 viewBox="0 0 1024 371.2" enable-background="new 0 0 1024 371.2" xml:space="preserve">
<g>
	<path fill="#FDBD13" d="M101.4,243.7c1.7,1.4,4.7,1.8,6.7,0.9l92.5-44c2-0.9,1.9-2.1-0.3-2.5L1.9,156.7c-2.2-0.5-2.6,0.4-0.9,1.8
		L101.4,243.7z"/>
	<path fill="#FDBD13" d="M101.2,143.6c0.2,2.4,2.2,5,4.4,5.8l103.9,37.7c2.2,0.8,3-0.2,1.7-2.2L92.8,1.3c-1.3-2-2.2-1.7-2,0.7
		L101.2,143.6z"/>
	<path fill="#FDBD13" d="M194.4,310.6c2-0.4,4.1-2.4,4.5-4.4l19.5-86c0.5-2-0.5-2.6-2.1-1.3l-134,112.4c-1.6,1.3-1.2,2.1,0.8,1.7
		L194.4,310.6z"/>
	<path fill="#FFFFFF" d="M131.2,123.3l-26.1,13c-1.2-2.6-2.8-4.8-4.7-6.5c-1.9-1.8-3.9-3.2-6.1-4.4c-2.2-1.2-4.4-2-6.7-2.5
		c-2.3-0.5-4.4-0.7-6.3-0.7c-2,0-4.1,0.2-6.2,0.5c-2.1,0.3-4,1-5.7,1.9c-1.7,0.9-3.1,2.3-4.2,4.2c-1.1,1.8-1.6,4.2-1.6,7
		c0,2,0.7,4.3,2,6.8c1.4,2.5,3.6,4.6,6.7,6.2c0.5,0.3,1.1,0.6,1.6,0.9c0.5,0.4,1.1,0.6,1.6,0.9c2.9,1.5,5.7,3,8.6,4.5
		c2.9,1.5,5.7,2.9,8.6,4.3c0.7,0.4,1.5,0.8,2.5,1.3c1,0.5,1.9,0.9,2.6,1.3c1.2,0.5,2.6,1.2,4.1,1.9c1.5,0.8,2.8,1.5,3.9,2.1
		c4.2,2.5,7.7,5.1,10.4,8c2.7,2.9,4.8,5.9,6.3,9.1c1.5,3.2,2.5,6.5,3.2,9.8c0.6,3.3,0.9,6.6,0.9,9.9c0,4-0.5,7.7-1.4,11.3
		c-0.9,3.6-2.5,7-4.7,10.1c-2.2,3.1-5.1,6-8.7,8.7c-3.6,2.7-8.1,5.1-13.3,7.1c-1.2,0.4-2.7,0.8-4.3,1.2c-1.6,0.4-3.3,0.7-5.1,0.9
		c-1.8,0.2-3.6,0.4-5.4,0.5c-1.8,0.1-3.4,0.2-4.8,0.2c-1.6,0-3,0-4-0.1c-1-0.1-2-0.1-3-0.2c-1-0.1-1.9-0.2-2.5-0.3
		c-3.1-0.4-6.5-1.2-10.1-2.2c-3.6-1.1-7.2-2.6-10.7-4.6c-3.5-2-6.9-4.4-10.1-7.3c-3.2-2.9-5.9-6.4-8.3-10.5
		c-0.4-0.7-0.8-1.5-1.3-2.3c-0.5-0.9-0.9-1.7-1.3-2.6L53,200h0.6c1.2,2.6,2.8,4.8,4.7,6.5c1.9,1.8,3.9,3.2,6.1,4.3
		c2.2,1.1,4.4,1.9,6.6,2.3c2.2,0.5,4.3,0.7,6.2,0.7c2.2,0,4.3-0.2,6.4-0.5c2.1-0.3,4-1,5.7-1.9c1.7-0.9,3.1-2.3,4.2-4.1
		c1.1-1.8,1.6-4.1,1.6-6.9c0-5.8-4-10.8-12-14.9c-0.4-0.1-1.3-0.6-2.7-1.3c-1.4-0.7-2.8-1.6-4.5-2.4c-1.6-0.9-3.4-1.8-5.2-2.7
		c-1.8-1-3.4-1.8-4.8-2.4c-0.5-0.3-1.3-0.7-2.2-1.1c-1-0.5-1.8-0.9-2.7-1.1c-1.2-0.7-2.6-1.4-4-2.1c-1.4-0.7-2.8-1.5-4.2-2.1
		c-4.2-2.3-7.7-4.9-10.4-7.8c-2.7-2.9-4.9-6-6.4-9.2c-1.6-3.2-2.7-6.4-3.3-9.8c-0.6-3.3-0.9-6.6-0.9-9.9c0-0.3,0.1-1.4,0.2-3.5
		c0.1-2,0.3-3.8,0.6-5.3c0.1-0.4,0.3-1,0.4-1.7c0.1-0.7,0.3-1.5,0.6-2.1c0.3-0.7,0.6-1.6,1.1-2.7c0.5-1.1,1-2.1,1.5-3.1
		c1.2-2.3,2.8-4.4,4.7-6.4c1.9-2,3.9-3.8,6.1-5.4c2.2-1.6,4.4-3,6.6-4.3c2.2-1.2,4.4-2.2,6.4-2.9c3.1-1.1,6.4-1.9,9.8-2.3
		c3.4-0.5,6.6-0.7,9.8-0.7c1.5,0.1,2.7,0.2,3.8,0.3c1,0.1,2.1,0.1,3.1,0.2c1.1,0.1,2,0.1,2.7,0.1c3.1,0.4,6.5,1.2,10.1,2.2
		c3.6,1.1,7.2,2.7,10.7,4.7c3.5,2,6.9,4.5,10.1,7.4c3.2,2.9,5.9,6.3,8.2,10.3c0.3,0.7,0.7,1.5,1.2,2.4
		C130.4,121.8,130.8,122.6,131.2,123.3z"/>
	<path fill="#FFFFFF" d="M275.5,143.6c0,6.1-1,11.9-2.9,17.2c-1.9,5.4-4.6,10.2-7.9,14.5c-3.4,4.3-7.3,7.9-11.8,10.9
		c-4.5,3-9.3,5.2-14.5,6.5c-1.2,0.3-3,0.7-5.3,1.2c-2.3,0.5-4.3,0.8-5.9,0.8h-24.4V243H172V92.5h54.8c0.9,0,2.1,0.1,3.5,0.3
		c1.4,0.2,2.8,0.5,4.2,0.8c1.4,0.3,2.8,0.7,4,1c1.2,0.3,2.1,0.6,2.7,0.7c3.9,1.5,7.6,3.3,11,5.3c3.4,2,6.8,5,10.4,8.9
		c2.6,2.7,4.8,5.9,6.6,9.5c1.8,3.6,3.3,7,4.4,10.1c0.7,2.3,1.2,4.7,1.5,7.1C275.3,138.7,275.5,141.2,275.5,143.6z M245.1,143.5
		c0-1.9-0.3-3.8-0.9-5.9c-0.6-2-1.6-4-2.9-5.8c-1.3-1.8-2.9-3.5-4.8-4.9c-1.9-1.4-4.1-2.5-6.7-3.2c-0.8-0.3-1.7-0.5-2.8-0.6
		c-1-0.1-1.6-0.2-1.7-0.2h-22.6v41.2h22.6c0.3,0,0.9-0.1,2-0.3c1.1-0.2,1.9-0.4,2.4-0.5c5.2-1.4,9-4.1,11.5-8.1
		C243.8,151.2,245.1,147.3,245.1,143.5z"/>
	<path fill="#FFFFFF" d="M412.2,243.2h-34l-11-23.2h-51.7l-11,23.2h-33.8l70.9-150.7L412.2,243.2z"/>
	<path fill="#FFFFFF" d="M538.2,243.2h-33.5l-25.9-57.6h-16.1V243h-30.8V92.5h54.8c0.8,0,1.9,0.1,3.2,0.3c1.3,0.2,2.7,0.5,4.1,0.8
		c1.4,0.3,2.8,0.7,4,1c1.2,0.3,2.2,0.6,2.9,0.9c3.2,1.4,6.2,2.9,9.1,4.7c2.9,1.8,5.8,4.2,8.7,7.3c3.3,3.5,5.9,7.2,7.7,11
		c1.9,3.8,3.1,7.5,3.8,11.2c0.7,3.1,1,6.3,1,9.4c0,6.7-1.6,13.5-4.8,20.6c-3.2,7.1-8.8,13.3-16.9,18.7L538.2,243.2z M500.3,139
		c0-2.7-0.7-5.5-2.1-8.3c-1.4-2.8-4-5-7.8-6.7c-0.7-0.3-1.5-0.5-2.5-0.7c-1-0.2-1.7-0.3-1.9-0.3h-23.2v32h23.2
		c0.3,0,0.9-0.1,1.9-0.4c1-0.3,1.9-0.5,2.5-0.8c3.8-1.5,6.4-3.6,7.8-6.5C499.6,144.5,500.3,141.7,500.3,139z"/>
	<path fill="#FFFFFF" d="M698.1,92.7l-68,75.4l67.8,75h-41.3l-47.1-51.9V243h-30.7V92.7h30.7V145l47.3-52.3H698.1z"/>
	<path fill="#FFFFFF" d="M904.3,123.3l-26.1,13c-1.2-2.6-2.8-4.8-4.7-6.5c-1.9-1.8-3.9-3.2-6.1-4.4c-2.2-1.2-4.4-2-6.7-2.5
		c-2.3-0.5-4.4-0.7-6.3-0.7c-2,0-4.1,0.2-6.2,0.5c-2.1,0.3-4,1-5.7,1.9c-1.7,0.9-3.1,2.3-4.2,4.2c-1.1,1.8-1.6,4.2-1.6,7
		c0,2,0.7,4.3,2,6.8c1.4,2.5,3.6,4.6,6.7,6.2c0.5,0.3,1.1,0.6,1.6,0.9c0.5,0.4,1.1,0.6,1.6,0.9c2.9,1.5,5.7,3,8.6,4.5
		c2.9,1.5,5.7,2.9,8.6,4.3c0.7,0.4,1.5,0.8,2.5,1.3c1,0.5,1.9,0.9,2.6,1.3c1.2,0.5,2.6,1.2,4.1,1.9c1.5,0.8,2.8,1.5,3.9,2.1
		c4.2,2.5,7.7,5.1,10.4,8c2.7,2.9,4.8,5.9,6.3,9.1c1.5,3.2,2.5,6.5,3.2,9.8c0.6,3.3,0.9,6.6,0.9,9.9c0,4-0.5,7.7-1.4,11.3
		c-0.9,3.6-2.5,7-4.7,10.1c-2.2,3.1-5.1,6-8.7,8.7c-3.6,2.7-8.1,5.1-13.3,7.1c-1.2,0.4-2.7,0.8-4.3,1.2c-1.6,0.4-3.3,0.7-5.1,0.9
		c-1.8,0.2-3.6,0.4-5.4,0.5c-1.8,0.1-3.4,0.2-4.8,0.2c-1.6,0-3,0-4-0.1c-1-0.1-2-0.1-3.1-0.2c-1-0.1-1.9-0.2-2.5-0.3
		c-3.1-0.4-6.5-1.2-10.1-2.2c-3.6-1.1-7.2-2.6-10.7-4.6c-3.5-2-6.9-4.4-10.1-7.3c-3.2-2.9-5.9-6.4-8.3-10.5
		c-0.4-0.7-0.8-1.5-1.3-2.3c-0.5-0.9-0.9-1.7-1.3-2.6l25.5-12.8h0.6c1.2,2.6,2.8,4.8,4.7,6.5c1.9,1.8,3.9,3.2,6.1,4.3
		c2.2,1.1,4.4,1.9,6.6,2.3c2.2,0.5,4.3,0.7,6.2,0.7c2.2,0,4.3-0.2,6.4-0.5c2.1-0.3,4-1,5.7-1.9c1.7-0.9,3.1-2.3,4.2-4.1
		c1.1-1.8,1.6-4.1,1.6-6.9c0-5.8-4-10.8-12-14.9c-0.4-0.1-1.3-0.6-2.7-1.3c-1.4-0.7-2.8-1.6-4.5-2.4c-1.6-0.9-3.4-1.8-5.2-2.7
		c-1.8-1-3.4-1.8-4.8-2.4c-0.5-0.3-1.3-0.7-2.2-1.1c-1-0.5-1.8-0.9-2.7-1.1c-1.2-0.7-2.6-1.4-4-2.1c-1.4-0.7-2.8-1.5-4.2-2.1
		c-4.2-2.3-7.7-4.9-10.4-7.8c-2.7-2.9-4.9-6-6.4-9.2c-1.6-3.2-2.7-6.4-3.3-9.8c-0.6-3.3-0.9-6.6-0.9-9.9c0-0.3,0.1-1.4,0.2-3.5
		c0.1-2,0.3-3.8,0.6-5.3c0.1-0.4,0.3-1,0.4-1.7c0.1-0.7,0.3-1.5,0.6-2.1c0.3-0.7,0.6-1.6,1.1-2.7c0.5-1.1,1-2.1,1.5-3.1
		c1.2-2.3,2.8-4.4,4.7-6.4c1.9-2,3.9-3.8,6.1-5.4c2.2-1.6,4.4-3,6.6-4.3c2.2-1.2,4.4-2.2,6.4-2.9c3.1-1.1,6.4-1.9,9.8-2.3
		c3.4-0.5,6.6-0.7,9.8-0.7c1.5,0.1,2.7,0.2,3.8,0.3c1,0.1,2.1,0.1,3.2,0.2c1.1,0.1,2,0.1,2.7,0.1c3.1,0.4,6.5,1.2,10.1,2.2
		c3.6,1.1,7.2,2.7,10.7,4.7c3.5,2,6.9,4.5,10.1,7.4c3.2,2.9,5.9,6.3,8.2,10.3c0.3,0.7,0.7,1.5,1.2,2.4
		C903.4,121.8,903.9,122.6,904.3,123.3z"/>
	<path fill="#FFFFFF" d="M1024,243h-26.5c-0.3,0-0.9-0.1-1.8-0.2c-0.9-0.1-1.8-0.3-2.4-0.4c-2.5-0.4-4.8-0.8-7.1-1.2
		c-2.3-0.4-4.8-1.1-7.5-2.2c-9.1-3.4-16.8-7.8-23.2-13.1c-6.4-5.4-11.6-11.2-15.7-17.6c-4.1-6.4-7-13-8.9-20
		c-1.8-6.9-2.7-13.7-2.7-20.4c0-1.4,0.1-3.8,0.4-7.2c0.3-3.5,0.7-6.8,1.4-9.9c0.9-3.8,2.4-8,4.4-12.4c2-4.5,4.5-8.9,7.4-13.1
		c3-4.3,6.4-8.3,10.4-12.2c3.9-3.9,8.3-7.2,13.2-10.1c6.9-4.1,13.6-6.7,20-7.9c0.3,0,0.9-0.1,1.9-0.4c1-0.3,2.2-0.6,3.5-0.9
		c1.3-0.4,2.6-0.6,3.9-0.8c1.3-0.2,2.3-0.3,3.2-0.3h26.3V123h-24.8c-0.3,0-1.1,0.2-2.4,0.5c-1.4,0.4-2.5,0.6-3.3,0.7
		c-2.4,0.3-5.1,1.1-8,2.6c-2.9,1.4-5.8,3.2-8.7,5.4c-2.9,2.2-5.5,4.6-7.8,7.3c-2.4,2.7-4.2,5.5-5.4,8.4c-0.3,0.7-0.6,1.5-1.1,2.3
		c-0.5,0.9-0.8,1.7-1.1,2.5c-1.1,3.1-1.8,5.8-2,7.9c-0.3,2.1-0.4,4.4-0.4,7c0,3.7,0.5,7.5,1.4,11.5c0.9,4,2.5,7.8,4.7,11.5
		c2.2,3.7,5,7.1,8.5,10.3c3.4,3.2,7.7,5.9,12.7,8c0.5,0.3,1.4,0.6,2.6,1c1.2,0.4,2.5,0.8,3.8,1.1c1.3,0.3,2.5,0.6,3.8,0.9
		c1.2,0.3,2.2,0.4,3.1,0.4h24.6V243z"/>
	<path fill="#FDBD13" d="M287,294c0.8-1.7,0.4-4.2-0.8-5.5L243.4,240c-1.2-1.4-2.1-1-2,0.8l9.3,128.9c0.1,1.8,0.9,2,1.6,0.3L287,294
		z"/>
	<path fill="#FDBD13" d="M341.3,254.4c-0.7-1.9-2.9-3.6-4.9-3.8l-51.5-4c-2-0.2-2.5,0.8-0.9,2.2l78.5,69.9c1.5,1.4,2.2,0.9,1.5-1
		L341.3,254.4z"/>
	<path fill="#FDBD13" d="M359,209.8c-1.7-0.8-4.2-0.4-5.5,0.8l-27.8,24.6c-1.4,1.2-1,2.1,0.8,2l76.6-5.7c1.8-0.1,2-0.9,0.3-1.6
		L359,209.8z"/>
	<path fill="#FDBD13" d="M343.5,183.4c-1.8,0.1-3.9,1.5-4.6,3.2l-9.1,22.5c-0.7,1.7,0,2.3,1.6,1.4l45-26.6c1.6-0.9,1.4-1.6-0.5-1.6
		L343.5,183.4z"/>
</g>
</svg>
