<?xml version="1.0" encoding="utf-8"?>
<!-- Generator: Adobe Illustrator 16.0.0, SVG Export Plug-In . SVG Version: 6.00 Build 0)  -->
<!DOCTYPE svg PUBLIC "-//W3C//DTD SVG 1.1//EN" "http://www.w3.org/Graphics/SVG/1.1/DTD/svg11.dtd">
<svg version="1.1" id="Layer_1" xmlns="http://www.w3.org/2000/svg" xmlns:xlink="http://www.w3.org/1999/xlink" x="0px" y="0px"
	 width="89.65px" height="87.542px" viewBox="0 0 89.65 87.542" enable-background="new 0 0 89.65 87.542" xml:space="preserve">
<g>
	<path fill="#FFFFFF" d="M12.313,43.793c0,9.586-0.004,19.171,0.002,28.757c0.002,2.236,1.398,3.712,3.568,3.714
		c10.061,0.016,20.125,0.005,30.188,0.018c0.746,0.002,1.052-0.271,1.049-1.02c-0.011-7.785-0.011-15.569,0-23.357
		c0.002-0.725-0.297-0.965-1.013-0.948c-2.011,0.041-4.024,0.032-6.037,0.026c-1.071-0.002-1.366-0.295-1.353-1.385
		c0.013-1.269,0.119-2.538,0.114-3.805c0-1.056-0.174-2.107-0.123-3.17c0.045-0.957,0.226-1.155,1.196-1.155
		c1.852-0.004,3.706,0.006,5.557,0.002c1.454-0.004,1.628-0.2,1.658-1.652c0.054-2.591-0.157-5.188,0.157-7.775
		c0.331-2.716,1.159-5.226,3.101-7.239c2.411-2.499,5.5-3.378,8.85-3.503c2.273-0.084,4.545,0.142,6.813,0.275
		c0.731,0.045,0.964,0.342,0.957,1.032c-0.021,2.172-0.002,4.342-0.011,6.512c-0.002,0.966-0.12,1.048-1.129,1.071
		c-1.796,0.037-3.596-0.107-5.39,0.148c-2.213,0.316-3.469,1.667-3.497,3.908c-0.028,2.065,0.006,4.129-0.023,6.196
		c-0.011,0.749,0.267,1.039,1.023,1.03c2.409-0.026,4.817-0.006,7.229-0.009c1.271-0.002,1.426,0.183,1.254,1.435
		c-0.312,2.254-0.61,4.508-0.903,6.766c-0.148,1.114-0.346,1.314-1.458,1.321c-2.011,0.008-4.026-0.002-6.037,0.008
		c-1,0.007-1.097,0.101-1.099,1.093c0,7.68,0,15.36,0,23.038c0,1.05,0.095,1.143,1.133,1.145c2.781,0.004,5.56,0.002,8.341,0.002
		c2.354,0,4.714,0.021,7.069-0.009c2.026-0.025,3.431-1.191,3.644-2.961c0.101-0.867,0.174-1.736,0.161-2.611
		c-0.075-5.508,0.013-11.012-0.104-16.518c-0.105-4.998-0.032-10.003,0.059-15.005c0.144-7.835,0.047-15.674,0.034-23.514
		c-0.005-2.783-1.628-4.355-4.424-4.373c-3.203-0.019-6.403,0.084-9.604,0.123c-4.447,0.05-8.891,0.047-13.338-0.105
		c-2.301-0.08-4.607-0.015-6.91-0.015c-8.764,0-17.531-0.002-26.295,0.002c-3.108,0.002-4.411,1.306-4.411,4.383
		C12.313,25.045,12.313,34.42,12.313,43.793z"/>
	<path fill-rule="evenodd" clip-rule="evenodd" fill="#FFFFFF" d="M12.313,43.793c0-9.373,0-18.748,0-28.123
		c0-3.078,1.303-4.381,4.411-4.383c8.764-0.004,17.531-0.002,26.295-0.002c2.303,0,4.609-0.065,6.91,0.015
		c4.448,0.153,8.891,0.155,13.338,0.105c3.2-0.039,6.4-0.142,9.604-0.123c2.796,0.017,4.419,1.589,4.424,4.373
		c0.013,7.839,0.109,15.679-0.034,23.514c-0.091,5.002-0.164,10.007-0.059,15.005c0.116,5.506,0.028,11.01,0.104,16.518
		c0.013,0.875-0.061,1.744-0.161,2.611c-0.213,1.77-1.617,2.936-3.644,2.961c-2.355,0.03-4.715,0.009-7.069,0.009
		c-2.781,0-5.56,0.002-8.341-0.002c-1.039-0.002-1.133-0.095-1.133-1.145c0-7.678,0-15.358,0-23.038
		c0.002-0.992,0.099-1.086,1.099-1.093c2.011-0.011,4.026,0,6.037-0.008c1.112-0.007,1.31-0.207,1.458-1.321
		c0.293-2.258,0.592-4.512,0.903-6.766c0.172-1.251,0.018-1.437-1.254-1.435c-2.411,0.002-4.819-0.017-7.229,0.009
		c-0.757,0.008-1.034-0.282-1.023-1.03c0.03-2.067-0.004-4.131,0.023-6.196c0.028-2.241,1.284-3.592,3.497-3.908
		c1.794-0.256,3.594-0.112,5.39-0.148c1.009-0.023,1.127-0.105,1.129-1.071c0.009-2.17-0.011-4.34,0.011-6.512
		c0.007-0.69-0.226-0.987-0.957-1.032c-2.269-0.133-4.54-0.359-6.813-0.275c-3.351,0.125-6.439,1.004-8.85,3.503
		c-1.942,2.013-2.77,4.523-3.101,7.239c-0.314,2.587-0.104,5.184-0.157,7.775c-0.03,1.452-0.204,1.647-1.658,1.652
		c-1.852,0.004-3.706-0.006-5.557-0.002c-0.97,0-1.151,0.198-1.196,1.155c-0.052,1.062,0.123,2.114,0.123,3.17
		c0.004,1.267-0.101,2.536-0.114,3.805c-0.013,1.09,0.282,1.383,1.353,1.385c2.013,0.006,4.026,0.015,6.037-0.026
		c0.716-0.017,1.015,0.224,1.013,0.948c-0.011,7.788-0.011,15.572,0,23.357c0.002,0.748-0.303,1.021-1.049,1.02
		c-10.063-0.013-20.126-0.002-30.188-0.018c-2.17-0.002-3.566-1.478-3.568-3.714C12.309,62.964,12.313,53.379,12.313,43.793z"/>
</g>
</svg>
