<?xml version="1.0" encoding="utf-8"?>
<!-- Generator: Adobe Illustrator 16.0.0, SVG Export Plug-In . SVG Version: 6.00 Build 0)  -->
<!DOCTYPE svg PUBLIC "-//W3C//DTD SVG 1.1//EN" "http://www.w3.org/Graphics/SVG/1.1/DTD/svg11.dtd">
<svg version="1.1" id="Layer_1" xmlns="http://www.w3.org/2000/svg" xmlns:xlink="http://www.w3.org/1999/xlink" x="0px" y="0px"
	 width="89.65px" height="87.542px" viewBox="0 0 89.65 87.542" enable-background="new 0 0 89.65 87.542" xml:space="preserve">
<path fill-rule="evenodd" clip-rule="evenodd" fill="#FFFFFF" d="M78.906,18.07c0.025-4.728-3.478-8.485-8.459-8.377
	c-8.532,0.184-17.07,0.05-25.604,0.05c-8.536,0-17.07-0.007-25.606,0.011c-0.959,0.002-1.961,0.015-2.875,0.267
	c-3.639,1.002-5.601,3.835-5.604,8.102c-0.018,17.123-0.016,34.243-0.003,51.362c0.005,5.15,3.259,8.355,8.461,8.357
	c17.019,0.011,34.038,0.009,51.057,0c5.347-0.002,8.585-3.207,8.592-8.564C78.88,52.21,78.812,35.141,78.906,18.07z M44.85,30.674
	c7.114,0.001,12.919,5.759,13.014,12.904c0.095,7.234-5.873,13.185-13.214,13.174c-7.032-0.009-12.942-5.837-12.942-12.997
	C31.707,35.708,38.741,30.233,44.85,30.674z M70.893,40.418c0,8.685,0,17.371,0,26.058c-0.002,2.497-0.923,3.433-3.388,3.435
	c-15.123,0.004-30.247,0.004-45.369,0c-2.519,0-3.408-0.884-3.411-3.377c-0.002-8.734,0-17.472,0-26.208c0-0.5,0-0.998,0-1.584
	c1.992,0,3.712,0,5.597,0c-1.447,8.056,0.303,15.058,6.435,20.663c4.384,4.006,9.595,5.663,15.451,5.297
	c6.506-0.404,11.638-3.417,15.547-8.562c3.94-5.181,4.607-11.072,3.519-17.385c1.878,0,3.642,0,5.62,0
	C70.893,39.336,70.893,39.877,70.893,40.418z M70.884,27.813c-0.034,1.596-1.058,2.75-2.624,2.792c-2.546,0.068-5.099,0.069-7.644,0
	c-1.542-0.041-2.673-1.192-2.712-2.745c-0.062-2.546-0.068-5.097,0.002-7.644c0.048-1.658,1.186-2.675,2.887-2.698
	c2.447-0.032,4.893-0.037,7.338,0.001c1.671,0.025,2.71,1.111,2.749,2.805c0.027,1.222,0.004,2.445,0.004,3.668
	c0.002,0,0.007,0,0.009,0C70.893,25.266,70.912,26.54,70.884,27.813z"/>
</svg>
