<?xml version="1.0" encoding="utf-8"?>
<!-- Generator: Adobe Illustrator 16.0.0, SVG Export Plug-In . SVG Version: 6.00 Build 0)  -->
<!DOCTYPE svg PUBLIC "-//W3C//DTD SVG 1.1//EN" "http://www.w3.org/Graphics/SVG/1.1/DTD/svg11.dtd">
<svg version="1.1" id="Layer_1" xmlns="http://www.w3.org/2000/svg" xmlns:xlink="http://www.w3.org/1999/xlink" x="0px" y="0px"
	 width="89.65px" height="87.542px" viewBox="0 0 89.65 87.542" enable-background="new 0 0 89.65 87.542" xml:space="preserve">
<g>
	<path fill="#FFFFFF" d="M74.83,23.279c1.05-0.821,2-1.731,2.906-2.686c1.294-1.361,2.262-2.936,2.946-4.68
		c0.095-0.243,0.342-0.531,0.073-0.761c-0.218-0.187-0.461,0.054-0.674,0.155c-0.281,0.129-0.553,0.28-0.828,0.419
		c-2.249,1.133-4.587,2.013-7.037,2.596c-0.727,0.17-1.353,0.148-1.963-0.426c-3.734-3.531-8.203-4.882-13.236-4.078
		c-5.912,0.946-10.005,4.347-12.306,9.837c-1.121,2.675-1.396,5.506-0.893,8.375c0.12,0.682-0.1,0.933-0.753,0.875
		c-0.617-0.056-1.232-0.112-1.844-0.178c-5.703-0.604-11.067-2.31-16.104-5.028c-4.944-2.671-9.273-6.117-12.891-10.439
		c-0.633-0.753-0.852-0.71-1.282,0.204C7.954,23.87,9.132,31.553,14.873,36.57c0.288,0.251,0.72,0.374,0.834,0.886
		c-0.166,0.017-0.312,0.06-0.449,0.043c-1.695-0.224-3.338-0.641-4.899-1.351c-1.071-0.488-1.186-0.45-1.104,0.714
		c0.381,5.411,2.955,9.528,7.45,12.494c1.376,0.91,2.934,1.402,4.465,2.017c-1.751,0.471-3.504,0.611-5.291,0.338
		c-0.301-0.047-0.647-0.153-0.879,0.107c-0.225,0.251-0.007,0.527,0.101,0.776c2.329,5.443,6.354,8.781,12.225,9.839
		c0.519,0.093,1.077,0.076,1.703,0.407c-6.717,5.043-14.177,6.977-22.561,6.318c0.712,0.817,1.486,1.127,2.2,1.515
		c7.626,4.145,15.747,6.046,24.445,5.522c4.07-0.245,8.052-0.893,11.917-2.172c6.787-2.247,12.642-5.966,17.588-11.167
		c3.188-3.351,5.824-7.067,7.854-11.192c3.259-6.62,5.065-13.603,4.853-21.029c-0.028-0.972,0.294-1.63,1.062-2.196
		c1.292-0.957,2.49-2.034,3.565-3.232c1.107-1.232,2.207-2.476,3.23-4.157C80.314,22.152,77.67,23.046,74.83,23.279z"/>
	<path fill-rule="evenodd" clip-rule="evenodd" fill="#FFFFFF" d="M74.83,23.279c2.841-0.232,5.484-1.127,8.354-2.228
		c-1.023,1.682-2.123,2.925-3.23,4.157c-1.075,1.198-2.273,2.275-3.565,3.232c-0.769,0.566-1.091,1.224-1.062,2.196
		c0.213,7.426-1.594,14.41-4.853,21.029c-2.03,4.125-4.667,7.842-7.854,11.192c-4.946,5.201-10.801,8.919-17.588,11.167
		c-3.865,1.279-7.847,1.927-11.917,2.172c-8.698,0.523-16.819-1.378-24.445-5.522c-0.714-0.388-1.488-0.697-2.2-1.515
		c8.384,0.658,15.844-1.275,22.561-6.318c-0.626-0.331-1.185-0.314-1.703-0.407c-5.871-1.058-9.896-4.396-12.225-9.839
		c-0.107-0.25-0.325-0.525-0.101-0.776c0.231-0.26,0.578-0.155,0.879-0.107c1.787,0.273,3.54,0.133,5.291-0.338
		c-1.531-0.615-3.089-1.107-4.465-2.017c-4.495-2.966-7.069-7.083-7.45-12.494c-0.082-1.164,0.032-1.202,1.104-0.714
		c1.562,0.709,3.204,1.127,4.899,1.351c0.138,0.017,0.283-0.026,0.449-0.043c-0.114-0.512-0.546-0.635-0.834-0.886
		c-5.74-5.018-6.919-12.7-3.928-19.107c0.431-0.914,0.649-0.957,1.282-0.204c3.617,4.323,7.946,7.768,12.891,10.439
		c5.037,2.718,10.401,4.424,16.104,5.028c0.611,0.066,1.227,0.123,1.844,0.178c0.653,0.058,0.873-0.193,0.753-0.875
		c-0.504-2.869-0.229-5.7,0.893-8.375c2.301-5.491,6.394-8.891,12.306-9.837c5.033-0.804,9.502,0.546,13.236,4.078
		c0.61,0.574,1.236,0.596,1.963,0.426c2.45-0.583,4.788-1.462,7.037-2.596c0.275-0.14,0.547-0.291,0.828-0.419
		c0.213-0.101,0.456-0.342,0.674-0.155c0.269,0.23,0.021,0.518-0.073,0.761c-0.685,1.744-1.652,3.319-2.946,4.68
		C76.83,21.547,75.879,22.458,74.83,23.279z"/>
</g>
</svg>
