<?xml version="1.0" encoding="utf-8"?>
<!-- Generator: Adobe Illustrator 18.1.1, SVG Export Plug-In . SVG Version: 6.00 Build 0)  -->
<svg version="1.1" id="Layer_1" xmlns="http://www.w3.org/2000/svg" xmlns:xlink="http://www.w3.org/1999/xlink" x="0px" y="0px"
	 viewBox="0 0 1200 1200" enable-background="new 0 0 1200 1200" xml:space="preserve">
<g>
	<g>
		<g>
			<path fill="#FDBD15" d="M458.4,341.1c-1.7,5.6,0.5,13.3,4.9,17.1L667,536c4.4,3.8,7,2.3,5.8-3.4L564.7,8.9
				c-1.2-5.7-3.5-5.8-5.2-0.2L458.4,341.1z"/>
		</g>
		<g>
			<path fill="#FDBD15" d="M671.1,545.4L671.1,545.4c-2.9,0-5.9-1.3-8.9-3.9L458.4,363.8c-6.6-5.8-9.6-16.4-7.1-24.8L552.5,6.6
				c2.3-7.7,6.6-9.3,9.8-9.3c2.8,0,7.9,1.3,9.7,10.2L680,531c0.9,4.6,0.3,8.3-1.9,11C676.4,544.2,673.8,545.4,671.1,545.4z
				 M561.2,28.3l-95.8,314.9c-0.9,2.8,0.5,7.5,2.7,9.4l195.1,170.3L561.2,28.3z"/>
		</g>
	</g>
	<g>
		<g>
			<path fill="#FDBD15" d="M326.7,620.8c3.4,4.7,10.9,7.6,16.6,6.4L608,572.6c5.7-1.2,6.1-4.2,0.8-6.7L126.6,335.1
				c-5.3-2.5-6.8-0.7-3.3,4L326.7,620.8z"/>
		</g>
		<g>
			<path fill="#FDBD15" d="M340.6,634.9c-7.7,0-15.7-3.9-19.9-9.7L117.3,343.5c-3.3-4.6-4.1-8.7-2.3-12.2c2.4-4.6,7.8-6.1,14.8-2.8
				L612,559.3c7.9,3.8,8.1,9.2,7.8,11.4c-0.3,2.2-1.8,7.4-10.4,9.2l-264.7,54.6C343.4,634.7,342,634.9,340.6,634.9z M140,349.7
				l192.7,266.8c1.7,2.3,6.4,4.1,9.1,3.5l253.6-52.3L140,349.7z"/>
		</g>
	</g>
	<g>
		<g>
			<path fill="#FDBD15" d="M500.8,884.7c5.8-0.6,12-5.7,13.8-11.2l76.9-235.7c1.8-5.5-0.6-7.4-5.4-4L181.6,913.8
				c-4.8,3.3-4,5.5,1.8,4.9L500.8,884.7z"/>
		</g>
		<g>
			<path fill="#FDBD15" d="M181.6,926.2c-7.4,0-9.5-4.4-10.1-6.3c-0.9-3-0.7-7.6,5.9-12.1l404.5-280.1c6.2-4.3,12.4-3.7,15.7,0.8
				c2.2,3,2.5,6.9,0.9,11.6l-76.9,235.7c-2.7,8.3-11.3,15.3-20,16.3l-317.4,34C183.2,926.1,182.4,926.2,181.6,926.2z M581.2,645.6
				L200.8,909.4l299.2-32c2.9-0.3,6.7-3.4,7.6-6.2L581.2,645.6z"/>
		</g>
	</g>
	<g>
		<g>
			<path fill="#FDBD15" d="M773.4,949.9c2.4-5.3,1.2-13.2-2.6-17.6L634.9,778c-3.8-4.4-6.7-3.2-6.2,2.6l29.7,410.1
				c0.4,5.8,2.7,6.2,5.1,0.9L773.4,949.9z"/>
		</g>
		<g>
			<path fill="#FDBD15" d="M660.4,1202.8L660.4,1202.8c-2,0-8.6-0.8-9.3-11.5l-29.7-410.1c-0.3-4.4,0.7-7.9,2.9-10.3
				c4-4.3,11-3.8,16.2,2.2l135.9,154.3c5.8,6.6,7.4,17.5,3.8,25.5l-109.9,241.8C667.8,1200.1,664.5,1202.8,660.4,1202.8z
				 M636.9,791.4l27.5,380.6l102.3-225.1c1.2-2.7,0.5-7.5-1.4-9.7L636.9,791.4z"/>
		</g>
	</g>
	<g>
		<g>
			<path fill="#FDBD15" d="M955,841.3c-2.7-5.1-9.7-9-15.5-8.7L792.3,842c-5.8,0.4-6.6,3.3-1.8,6.5l250.2,166.2
				c4.9,3.2,6.6,1.7,3.9-3.5L955,841.3z"/>
		</g>
		<g>
			<path fill="#FDBD15" d="M1044.7,1023.7L1044.7,1023.7c-2.5,0-5-0.9-8-2.9L786.5,854.6c-7.3-4.8-6.7-10.2-6.2-12.4
				c0.6-2.1,2.8-7.1,11.5-7.7l148.4-9.4c8.4,0,17.4,5.3,21.3,12.6l89.7,169.9c0.9,1.8,3.8,7.1,0.9,11.9
				C1050.5,1022.1,1047.8,1023.7,1044.7,1023.7z M804.2,848.6l225.5,149.8l-81.1-153.6c-1.3-2.4-5.3-4.8-8.2-4.8L804.2,848.6z"/>
		</g>
	</g>
	<g>
		<g>
			<path fill="#FDBD15" d="M919.3,654.1c-5.8-0.4-12.8,3.5-15.5,8.7l-55.2,104.3c-2.7,5.2-0.6,7.4,4.7,4.9l221.6-102.8
				c5.3-2.4,4.9-4.8-1-5.1L919.3,654.1z"/>
		</g>
		<g>
			<path fill="#FDBD15" d="M849.6,780.4L849.6,780.4c-3.5,0-6.5-1.6-8.2-4.5c-1.4-2.3-2.4-6.4,0.7-12.3l55.2-104.3
				c3.9-7.3,12.8-12.6,21.3-12.6l1.2,0l154.6,10c8.8,0.6,10.9,5.1,11.4,7.8c0.5,2.7,0.1,7.7-7.8,11.4L856.3,778.7
				C853.9,779.9,851.7,780.4,849.6,780.4z M918.8,661.5c-3.2,0-7.2,2.3-8.5,4.8l-49.9,94.3l194.7-90.2L918.8,661.5L918.8,661.5z"/>
		</g>
	</g>
	<g>
		<g>
			<path fill="#FDBD15" d="M885.4,532.3c-5.7,1.1-11.5,6.6-12.9,12.3l-17.8,75c-1.3,5.7,1.2,7.3,5.7,3.6l128.4-105.6
				c4.5-3.7,3.5-5.8-2.2-4.7L885.4,532.3z"/>
		</g>
		<g>
			<path fill="#FDBD15" d="M856.4,632.5L856.4,632.5c-2.8,0-5.5-1.3-7.2-3.5c-2.2-2.8-2.7-6.5-1.6-11.2l17.8-75
				c2-8.5,10-16.2,18.7-17.8l101.3-19.4c1.6-0.3,2.9-0.4,4-0.4c6.7,0,8.8,4.5,9.3,5.8c1,2.9,1,7.3-5,12.3L865.2,628.9
				C862.2,631.3,859.3,632.5,856.4,632.5z M970.1,523.5l-83.3,16c-2.9,0.5-6.4,3.9-7.1,6.8l-15.2,64L970.1,523.5z"/>
		</g>
	</g>
</g>
</svg>
