<?xml version="1.0" encoding="utf-8"?>
<!-- Generator: Adobe Illustrator 18.1.1, SVG Export Plug-In . SVG Version: 6.00 Build 0)  -->
<svg version="1.1" id="Layer_1" xmlns="http://www.w3.org/2000/svg" xmlns:xlink="http://www.w3.org/1999/xlink" x="0px" y="0px"
	 viewBox="0 0 929.9 314.7" enable-background="new 0 0 929.9 314.7" xml:space="preserve">
<g>
	<g>
		<path fill="#FDBD15" d="M86,206.7c1.4,1.2,4,1.5,5.7,0.7l78.5-37.4c1.7-0.8,1.6-1.8-0.3-2.2l-168.2-35c-1.8-0.4-2.2,0.3-0.7,1.5
			L86,206.7z"/>
		<path fill="#FDBD15" d="M85.8,121.8c0.1,2,1.8,4.2,3.7,4.9l88.1,31.9c1.9,0.7,2.6-0.1,1.5-1.8L78.7,1.1c-1.1-1.7-1.9-1.4-1.7,0.6
			L85.8,121.8z"/>
		<path fill="#FDBD15" d="M164.8,263.4c1.7-0.3,3.5-2,3.8-3.7l16.5-72.9c0.4-1.7-0.4-2.2-1.7-1.1L69.8,281c-1.3,1.1-1,1.8,0.7,1.4
			L164.8,263.4z"/>
		<g>
			<path fill="#FFFFFF" d="M111.3,104.5l-22.1,11c-1-2.2-2.4-4-4-5.5c-1.6-1.5-3.3-2.7-5.2-3.7c-1.8-1-3.7-1.7-5.7-2.1
				c-2-0.4-3.7-0.6-5.3-0.6c-1.7,0-3.5,0.2-5.3,0.4c-1.8,0.3-3.4,0.8-4.8,1.6c-1.4,0.8-2.6,2-3.5,3.5c-0.9,1.5-1.4,3.5-1.4,6
				c0,1.7,0.6,3.6,1.7,5.8c1.2,2.1,3,3.9,5.7,5.3c0.5,0.2,0.9,0.5,1.4,0.8c0.5,0.3,0.9,0.6,1.4,0.8c2.4,1.3,4.8,2.5,7.3,3.8
				s4.8,2.5,7.3,3.6c0.6,0.3,1.3,0.7,2.2,1.1c0.9,0.4,1.6,0.8,2.2,1.1c1,0.5,2.2,1,3.5,1.6c1.3,0.6,2.3,1.3,3.3,1.8
				c3.6,2.1,6.5,4.3,8.8,6.7c2.3,2.4,4.1,5,5.4,7.7c1.3,2.7,2.2,5.5,2.7,8.3c0.5,2.8,0.8,5.6,0.8,8.4c0,3.4-0.4,6.5-1.2,9.6
				c-0.8,3-2.1,5.9-4,8.6c-1.8,2.6-4.3,5.1-7.3,7.4c-3.1,2.3-6.8,4.3-11.3,6c-1,0.3-2.2,0.7-3.6,1c-1.4,0.3-2.8,0.6-4.3,0.8
				c-1.5,0.2-3,0.3-4.6,0.4c-1.6,0.1-2.9,0.2-4.1,0.2c-1.4,0-2.5,0-3.4-0.1c-0.9-0.1-1.7-0.1-2.6-0.2c-0.9-0.1-1.6-0.2-2.2-0.3
				c-2.7-0.3-5.5-1-8.6-1.9c-3-0.9-6.1-2.2-9.1-3.9c-3-1.7-5.8-3.7-8.5-6.2c-2.7-2.5-5-5.4-7-8.9c-0.3-0.6-0.7-1.2-1.1-2
				c-0.4-0.8-0.8-1.5-1.1-2.2L45,169.6h0.5c1,2.2,2.4,4,4,5.5c1.6,1.5,3.3,2.7,5.2,3.6c1.8,0.9,3.7,1.6,5.6,2
				c1.9,0.4,3.7,0.6,5.3,0.6c1.8,0,3.7-0.1,5.4-0.4c1.8-0.3,3.4-0.8,4.8-1.6c1.4-0.8,2.6-2,3.5-3.4c0.9-1.5,1.4-3.5,1.4-5.9
				c0-5-3.4-9.1-10.2-12.6c-0.3-0.1-1.1-0.5-2.3-1.1c-1.2-0.6-2.4-1.3-3.8-2.1c-1.4-0.7-2.9-1.5-4.4-2.3c-1.6-0.8-2.9-1.5-4.1-2.1
				c-0.5-0.2-1.1-0.6-1.9-0.9c-0.8-0.4-1.6-0.7-2.2-1c-1-0.6-2.2-1.2-3.4-1.8c-1.2-0.6-2.4-1.2-3.5-1.8c-3.6-2-6.5-4.2-8.8-6.6
				c-2.3-2.5-4.1-5.1-5.4-7.8c-1.3-2.7-2.2-5.5-2.8-8.3c-0.5-2.8-0.8-5.6-0.8-8.4c0-0.2,0.1-1.2,0.2-2.9c0.1-1.7,0.3-3.2,0.5-4.5
				c0.1-0.3,0.2-0.8,0.4-1.5c0.1-0.6,0.3-1.2,0.5-1.8c0.2-0.6,0.5-1.3,1-2.2c0.4-0.9,0.8-1.8,1.3-2.6c1-2,2.4-3.8,4-5.4
				c1.6-1.7,3.3-3.2,5.2-4.6c1.8-1.4,3.7-2.6,5.6-3.6c1.9-1,3.7-1.8,5.4-2.4c2.6-0.9,5.4-1.6,8.3-2c2.9-0.4,5.6-0.6,8.3-0.6
				c1.3,0.1,2.3,0.2,3.2,0.3c0.9,0.1,1.8,0.1,2.7,0.2c0.9,0.1,1.7,0.1,2.3,0.1c2.6,0.3,5.5,1,8.5,1.9c3.1,0.9,6.1,2.2,9.1,4
				c3,1.7,5.8,3.8,8.6,6.3c2.7,2.5,5,5.4,7,8.7c0.2,0.6,0.6,1.3,1,2.1C110.5,103.3,110.9,103.9,111.3,104.5z"/>
			<path fill="#FFFFFF" d="M233.6,121.8c0,5.2-0.8,10.1-2.4,14.6c-1.6,4.5-3.9,8.6-6.7,12.3c-2.9,3.6-6.2,6.7-10,9.2
				c-3.8,2.5-7.9,4.4-12.3,5.5c-1,0.2-2.5,0.6-4.5,1c-2,0.4-3.6,0.7-5,0.7h-20.7v40.9h-26.1V78.4h46.5c0.8,0,1.8,0.1,2.9,0.3
				c1.2,0.2,2.3,0.4,3.5,0.7c1.2,0.3,2.3,0.6,3.4,0.9c1,0.3,1.8,0.5,2.2,0.6c3.3,1.3,6.5,2.8,9.3,4.5c2.9,1.7,5.8,4.3,8.8,7.6
				c2.2,2.3,4.1,5,5.6,8c1.5,3.1,2.8,5.9,3.7,8.5c0.6,2,1,4,1.3,6C233.4,117.6,233.6,119.7,233.6,121.8z M207.8,121.7
				c0-1.6-0.3-3.3-0.8-5c-0.5-1.7-1.3-3.4-2.4-4.9c-1.1-1.5-2.5-2.9-4.1-4.1c-1.6-1.2-3.5-2.1-5.7-2.7c-0.7-0.2-1.5-0.4-2.3-0.5
				c-0.9-0.1-1.3-0.2-1.5-0.2h-19.2v34.9h19.2c0.2,0,0.8-0.1,1.7-0.3c0.9-0.2,1.6-0.3,2.1-0.4c4.4-1.1,7.6-3.4,9.8-6.9
				C206.8,128.2,207.8,124.9,207.8,121.7z"/>
			<path fill="#FFFFFF" d="M349.5,206.2h-28.8l-9.3-19.7h-43.9l-9.3,19.7h-28.7l60.1-127.8L349.5,206.2z"/>
			<path fill="#FFFFFF" d="M456.4,206.2H428l-22-48.9h-13.7v48.7h-26.1V78.4h46.5c0.7,0,1.6,0.1,2.7,0.3c1.1,0.2,2.2,0.4,3.5,0.7
				c1.2,0.3,2.3,0.6,3.4,0.9c1,0.3,1.8,0.5,2.4,0.8c2.7,1.2,5.2,2.5,7.7,4c2.5,1.5,4.9,3.6,7.4,6.2c2.8,3,5,6.1,6.5,9.3
				c1.6,3.2,2.6,6.4,3.2,9.5c0.6,2.6,0.9,5.3,0.9,7.9c0,5.6-1.4,11.5-4.1,17.4c-2.7,6-7.5,11.3-14.3,15.9L456.4,206.2z M424.2,117.9
				c0-2.3-0.6-4.6-1.8-7c-1.2-2.4-3.4-4.3-6.6-5.7c-0.6-0.2-1.3-0.4-2.1-0.6c-0.9-0.2-1.4-0.3-1.6-0.3h-19.7v27.1H412
				c0.2,0,0.8-0.1,1.6-0.3c0.9-0.2,1.6-0.5,2.1-0.7c3.2-1.3,5.4-3.1,6.6-5.5C423.6,122.5,424.2,120.2,424.2,117.9z"/>
			<path fill="#FFFFFF" d="M591.9,78.6l-57.7,63.9l57.5,63.6h-35.1l-39.9-44v44h-26.1V78.6h26.1V123l40.1-44.4H591.9z"/>
			<path fill="#FFFFFF" d="M766.8,104.5l-22.1,11c-1-2.2-2.4-4-4-5.5c-1.6-1.5-3.3-2.7-5.2-3.7c-1.8-1-3.7-1.7-5.7-2.1
				c-2-0.4-3.7-0.6-5.3-0.6c-1.7,0-3.5,0.2-5.3,0.4c-1.8,0.3-3.4,0.8-4.8,1.6c-1.4,0.8-2.6,2-3.5,3.5c-0.9,1.5-1.4,3.5-1.4,6
				c0,1.7,0.6,3.6,1.7,5.8c1.2,2.1,3.1,3.9,5.7,5.3c0.5,0.2,0.9,0.5,1.4,0.8c0.5,0.3,0.9,0.6,1.4,0.8c2.4,1.3,4.9,2.5,7.3,3.8
				c2.4,1.3,4.8,2.5,7.3,3.6c0.6,0.3,1.3,0.7,2.1,1.1c0.9,0.4,1.6,0.8,2.2,1.1c1,0.5,2.2,1,3.5,1.6c1.3,0.6,2.3,1.3,3.3,1.8
				c3.6,2.1,6.5,4.3,8.8,6.7c2.3,2.4,4.1,5,5.4,7.7c1.3,2.7,2.2,5.5,2.7,8.3c0.5,2.8,0.8,5.6,0.8,8.4c0,3.4-0.4,6.5-1.2,9.6
				c-0.8,3-2.1,5.9-4,8.6c-1.8,2.6-4.3,5.1-7.3,7.4c-3.1,2.3-6.8,4.3-11.3,6c-1,0.3-2.2,0.7-3.6,1c-1.4,0.3-2.8,0.6-4.3,0.8
				c-1.5,0.2-3,0.3-4.6,0.4c-1.6,0.1-2.9,0.2-4.1,0.2c-1.4,0-2.5,0-3.4-0.1c-0.9-0.1-1.7-0.1-2.6-0.2c-0.9-0.1-1.6-0.2-2.1-0.3
				c-2.7-0.3-5.5-1-8.6-1.9c-3-0.9-6.1-2.2-9.1-3.9c-3-1.7-5.8-3.7-8.5-6.2c-2.7-2.5-5-5.4-7-8.9c-0.3-0.6-0.7-1.2-1.1-2
				c-0.4-0.8-0.8-1.5-1.1-2.2l21.6-10.9h0.5c1,2.2,2.4,4,4,5.5c1.6,1.5,3.3,2.7,5.2,3.6c1.8,0.9,3.7,1.6,5.6,2
				c1.9,0.4,3.7,0.6,5.3,0.6c1.8,0,3.7-0.1,5.4-0.4c1.8-0.3,3.4-0.8,4.8-1.6c1.4-0.8,2.6-2,3.5-3.4c0.9-1.5,1.4-3.5,1.4-5.9
				c0-5-3.4-9.1-10.2-12.6c-0.3-0.1-1.1-0.5-2.2-1.1c-1.2-0.6-2.4-1.3-3.8-2.1c-1.4-0.7-2.9-1.5-4.4-2.3c-1.6-0.8-2.9-1.5-4.1-2.1
				c-0.5-0.2-1.1-0.6-1.9-0.9c-0.8-0.4-1.6-0.7-2.2-1c-1-0.6-2.2-1.2-3.4-1.8c-1.2-0.6-2.4-1.2-3.5-1.8c-3.6-2-6.5-4.2-8.8-6.6
				c-2.3-2.5-4.1-5.1-5.4-7.8c-1.3-2.7-2.3-5.5-2.8-8.3c-0.5-2.8-0.8-5.6-0.8-8.4c0-0.2,0.1-1.2,0.2-2.9c0.1-1.7,0.3-3.2,0.5-4.5
				c0.1-0.3,0.2-0.8,0.3-1.5c0.1-0.6,0.3-1.2,0.5-1.8c0.2-0.6,0.6-1.3,1-2.2c0.4-0.9,0.8-1.8,1.3-2.6c1-2,2.4-3.8,4-5.4
				c1.6-1.7,3.3-3.2,5.2-4.6c1.8-1.4,3.7-2.6,5.6-3.6c1.9-1,3.7-1.8,5.4-2.4c2.6-0.9,5.4-1.6,8.3-2c2.9-0.4,5.6-0.6,8.3-0.6
				c1.3,0.1,2.3,0.2,3.2,0.3c0.9,0.1,1.8,0.1,2.7,0.2c0.9,0.1,1.7,0.1,2.2,0.1c2.6,0.3,5.5,1,8.5,1.9c3.1,0.9,6.1,2.2,9.1,4
				c3,1.7,5.8,3.8,8.6,6.3c2.7,2.5,5,5.4,7,8.7c0.2,0.6,0.6,1.3,1,2.1C766,103.3,766.4,103.9,766.8,104.5z"/>
			<path fill="#FFFFFF" d="M868.2,206.1h-22.4c-0.2,0-0.8-0.1-1.6-0.2c-0.8-0.1-1.5-0.2-2.1-0.3c-2.1-0.3-4.1-0.7-6-1
				c-2-0.3-4.1-1-6.4-1.9c-7.7-2.9-14.3-6.6-19.7-11.1c-5.4-4.5-9.8-9.5-13.3-14.9c-3.5-5.4-6-11.1-7.5-16.9
				c-1.5-5.9-2.3-11.6-2.3-17.3c0-1.2,0.1-3.2,0.3-6.1c0.2-2.9,0.6-5.7,1.2-8.4c0.8-3.2,2-6.7,3.7-10.5c1.7-3.8,3.8-7.5,6.3-11.1
				c2.5-3.6,5.5-7.1,8.8-10.4c3.3-3.3,7.1-6.1,11.2-8.5c5.9-3.5,11.5-5.7,16.9-6.7c0.2,0,0.8-0.1,1.6-0.4c0.9-0.2,1.8-0.5,2.9-0.8
				c1.1-0.3,2.2-0.5,3.3-0.7c1.1-0.2,2-0.3,2.7-0.3h22.3v25.9h-21.1c-0.2,0-0.9,0.2-2.1,0.4c-1.2,0.3-2.1,0.5-2.8,0.6
				c-2.1,0.2-4.3,1-6.8,2.2c-2.5,1.2-4.9,2.7-7.3,4.6c-2.4,1.8-4.6,3.9-6.6,6.2c-2,2.3-3.5,4.7-4.6,7.1c-0.2,0.6-0.6,1.2-1,2
				c-0.4,0.7-0.7,1.5-1,2.2c-0.9,2.7-1.5,4.9-1.7,6.7c-0.2,1.8-0.3,3.8-0.3,5.9c0,3.1,0.4,6.4,1.2,9.8c0.8,3.4,2.1,6.6,4,9.8
				c1.8,3.1,4.2,6,7.2,8.7c2.9,2.7,6.5,5,10.8,6.8c0.4,0.2,1.2,0.5,2.2,0.9c1,0.3,2.1,0.7,3.2,1c1.1,0.3,2.1,0.6,3.2,0.8
				c1,0.2,1.9,0.3,2.6,0.3h20.9V206.1z"/>
		</g>
		<path fill="#FDBD15" d="M243.3,249.3c0.6-1.4,0.3-3.5-0.7-4.7l-36.2-41.1c-1-1.2-1.8-0.8-1.7,0.7l7.9,109.3
			c0.1,1.5,0.7,1.7,1.4,0.2L243.3,249.3z"/>
		<path fill="#FDBD15" d="M289.4,215.7c-0.6-1.6-2.5-3.1-4.2-3.2l-43.6-3.4c-1.7-0.1-2.1,0.7-0.8,1.8l66.5,59.3
			c1.3,1.2,1.9,0.8,1.3-0.9L289.4,215.7z"/>
		<path fill="#FDBD15" d="M304.4,177.9c-1.4-0.6-3.5-0.3-4.7,0.7l-23.6,20.9c-1.2,1-0.8,1.8,0.7,1.7l65-4.9c1.6-0.1,1.7-0.7,0.2-1.4
			L304.4,177.9z"/>
		<path fill="#FDBD15" d="M291.2,155.5c-1.6,0.1-3.3,1.3-3.9,2.7l-7.8,19c-0.6,1.4,0,2,1.4,1.2l38.1-22.6c1.3-0.8,1.2-1.4-0.4-1.3
			L291.2,155.5z"/>
	</g>
	<g>
		<path fill="#FFFFFF" d="M330.6,239c-0.5,0.4-0.7,0.9-0.7,1.5c0,0.6,0.3,1.1,0.8,1.5c0.6,0.4,1.9,0.8,3.9,1.3
			c2,0.5,3.6,1.2,4.7,2.2c1.1,1,1.7,2.5,1.7,4.4c0,1.9-0.7,3.5-2.2,4.7c-1.4,1.2-3.3,1.8-5.7,1.8c-3.4,0-6.4-1.3-9.1-3.8l2.8-3.5
			c2.3,2,4.4,3,6.4,3c0.9,0,1.6-0.2,2.1-0.6c0.5-0.4,0.7-0.9,0.7-1.5s-0.3-1.1-0.8-1.5c-0.5-0.4-1.6-0.8-3.1-1.1
			c-2.5-0.6-4.3-1.4-5.4-2.3c-1.1-0.9-1.7-2.4-1.7-4.5s0.7-3.6,2.2-4.7c1.5-1.1,3.3-1.6,5.4-1.6c1.4,0,2.8,0.2,4.3,0.7
			c1.4,0.5,2.7,1.2,3.7,2.1l-2.4,3.5c-1.9-1.4-3.8-2.1-5.7-2.1C331.7,238.4,331.1,238.6,330.6,239z"/>
		<path fill="#FFFFFF" d="M353.9,238.8V256h-4.8v-17.2h-6v-4.1H360v4.1H353.9z"/>
		<path fill="#FFFFFF" d="M369.1,250.5c0.8,1,1.9,1.5,3.2,1.5s2.4-0.5,3.2-1.5c0.8-1,1.2-2.3,1.2-4v-11.8h4.8v11.9
			c0,3.1-0.9,5.5-2.6,7.1c-1.7,1.7-3.9,2.5-6.6,2.5c-2.7,0-4.9-0.8-6.6-2.5c-1.7-1.7-2.6-4-2.6-7.1v-11.9h4.8v11.8
			C367.9,248.2,368.3,249.5,369.1,250.5z"/>
		<path fill="#FFFFFF" d="M402.6,237.5c2,1.9,3.1,4.4,3.1,7.8c0,3.3-1,5.9-3,7.9c-2,1.9-5,2.9-9.1,2.9h-7.3v-21.3h7.5
			C397.7,234.7,400.6,235.6,402.6,237.5z M399.2,250.2c1.2-1.1,1.8-2.7,1.8-4.8c0-2.1-0.6-3.7-1.8-4.8c-1.2-1.1-3-1.7-5.4-1.7h-2.7
			v13h3C396.3,251.8,398,251.3,399.2,250.2z"/>
		<path fill="#FFFFFF" d="M425.2,234.7v4.2h-10.6v4.4h9.5v4.1h-9.5v4.4h11v4.2h-15.7v-21.3H425.2z"/>
		<path fill="#FFFFFF" d="M444.7,234.7h4.8V256h-4.8l-10.2-13.4V256h-4.8v-21.3h4.5l10.5,13.7V234.7z"/>
		<path fill="#FFFFFF" d="M463.7,238.8V256H459v-17.2h-6v-4.1h16.8v4.1H463.7z"/>
		<path fill="#FFFFFF" d="M496.7,234.7v4.2h-10.6v4.4h9.5v4.1h-9.5v4.4h11v4.2h-15.7v-21.3H496.7z"/>
		<path fill="#FFFFFF" d="M516.2,234.7h4.8V256h-4.8L506,242.7V256h-4.8v-21.3h4.5l10.5,13.7V234.7z"/>
		<path fill="#FFFFFF" d="M535.2,238.8V256h-4.8v-17.2h-6v-4.1h16.8v4.1H535.2z"/>
		<path fill="#FFFFFF" d="M562,241.8c0,3.4-1.4,5.6-4.1,6.6l5.4,7.6h-5.9l-4.7-6.8h-3.3v6.8h-4.8v-21.3h8.1c3.3,0,5.7,0.6,7.1,1.7
			C561.3,237.5,562,239.3,562,241.8z M556.3,244.3c0.6-0.5,0.9-1.4,0.9-2.5s-0.3-1.9-0.9-2.4c-0.6-0.4-1.7-0.6-3.2-0.6h-3.6v6.3h3.5
			C554.6,245.1,555.7,244.9,556.3,244.3z"/>
		<path fill="#FFFFFF" d="M582.3,234.7v4.2h-10.6v4.4h9.5v4.1h-9.5v4.4h11v4.2h-15.7v-21.3H582.3z"/>
		<path fill="#FFFFFF" d="M601.5,236.6c1.5,1.3,2.2,3.2,2.2,5.9s-0.8,4.6-2.3,5.8c-1.5,1.2-3.9,1.8-7,1.8h-2.8v5.9h-4.8v-21.3h7.5
			C597.7,234.7,600,235.3,601.5,236.6z M598,245c0.6-0.6,0.9-1.6,0.9-2.8s-0.4-2.1-1.1-2.6c-0.7-0.5-1.9-0.8-3.5-0.8h-2.7v7.2h3.2
			C596.4,246,597.5,245.6,598,245z"/>
		<path fill="#FFFFFF" d="M624.8,241.8c0,3.4-1.4,5.6-4.1,6.6l5.4,7.6h-5.9l-4.7-6.8h-3.3v6.8h-4.8v-21.3h8.1c3.3,0,5.7,0.6,7.1,1.7
			C624.1,237.5,624.8,239.3,624.8,241.8z M619.1,244.3c0.6-0.5,0.9-1.4,0.9-2.5s-0.3-1.9-0.9-2.4c-0.6-0.4-1.7-0.6-3.2-0.6h-3.6v6.3
			h3.5C617.4,245.1,618.5,244.9,619.1,244.3z"/>
		<path fill="#FFFFFF" d="M645.1,234.7v4.2h-10.6v4.4h9.5v4.1h-9.5v4.4h11v4.2h-15.7v-21.3H645.1z"/>
		<path fill="#FFFFFF" d="M664.5,234.7h4.8V256h-4.8l-10.2-13.4V256h-4.8v-21.3h4.5l10.5,13.7V234.7z"/>
		<path fill="#FFFFFF" d="M689.9,234.7v4.2h-10.6v4.4h9.5v4.1h-9.5v4.4h11v4.2h-15.7v-21.3H689.9z"/>
		<path fill="#FFFFFF" d="M700.2,250.5c0.8,1,1.9,1.5,3.2,1.5c1.3,0,2.4-0.5,3.2-1.5c0.8-1,1.2-2.3,1.2-4v-11.8h4.8v11.9
			c0,3.1-0.9,5.5-2.6,7.1c-1.7,1.7-3.9,2.5-6.6,2.5c-2.7,0-4.9-0.8-6.6-2.5c-1.7-1.7-2.6-4-2.6-7.1v-11.9h4.8v11.8
			C699,248.2,699.4,249.5,700.2,250.5z"/>
		<path fill="#FFFFFF" d="M734.7,241.8c0,3.4-1.4,5.6-4.1,6.6l5.4,7.6h-5.9l-4.7-6.8h-3.3v6.8h-4.8v-21.3h8.1c3.3,0,5.7,0.6,7.1,1.7
			C734,237.5,734.7,239.3,734.7,241.8z M729,244.3c0.6-0.5,0.9-1.4,0.9-2.5s-0.3-1.9-0.9-2.4c-0.6-0.4-1.7-0.6-3.2-0.6h-3.6v6.3h3.5
			C727.3,245.1,728.4,244.9,729,244.3z"/>
		<path fill="#FFFFFF" d="M744.6,239c-0.5,0.4-0.7,0.9-0.7,1.5c0,0.6,0.3,1.1,0.8,1.5s1.9,0.8,3.9,1.3c2,0.5,3.6,1.2,4.7,2.2
			c1.1,1,1.7,2.5,1.7,4.4c0,1.9-0.7,3.5-2.2,4.7c-1.4,1.2-3.3,1.8-5.7,1.8c-3.4,0-6.4-1.3-9.1-3.8l2.8-3.5c2.3,2,4.4,3,6.4,3
			c0.9,0,1.6-0.2,2.1-0.6c0.5-0.4,0.7-0.9,0.7-1.5s-0.3-1.1-0.8-1.5c-0.5-0.4-1.6-0.8-3.1-1.1c-2.5-0.6-4.3-1.4-5.4-2.3
			c-1.1-0.9-1.7-2.4-1.7-4.5s0.7-3.6,2.2-4.7c1.5-1.1,3.3-1.6,5.4-1.6c1.4,0,2.8,0.2,4.3,0.7c1.4,0.5,2.7,1.2,3.7,2.1l-2.4,3.5
			c-1.9-1.4-3.8-2.1-5.7-2.1C745.7,238.4,745,238.6,744.6,239z"/>
		<path fill="#FFFFFF" d="M772.3,234.7h4.8V256h-4.8v-8.4h-8.5v8.4h-4.8v-21.3h4.8v8.9h8.5V234.7z"/>
		<path fill="#FFFFFF" d="M782.3,234.7h4.8V256h-4.8V234.7z"/>
		<path fill="#FFFFFF" d="M807,236.6c1.5,1.3,2.2,3.2,2.2,5.9s-0.8,4.6-2.3,5.8c-1.5,1.2-3.9,1.8-7,1.8h-2.8v5.9h-4.8v-21.3h7.5
			C803.1,234.7,805.5,235.3,807,236.6z M803.5,245c0.6-0.6,0.9-1.6,0.9-2.8s-0.4-2.1-1.1-2.6c-0.7-0.5-1.9-0.8-3.5-0.8h-2.7v7.2h3.2
			C801.9,246,802.9,245.6,803.5,245z"/>
		<path fill="#FFFFFF" d="M836.2,256l-2-4.6h-8.9l-2,4.6h-5.1l9.2-21.3h4.6l9.2,21.3H836.2z M829.8,241.1l-2.7,6.2h5.3L829.8,241.1z
			"/>
		<path fill="#FFFFFF" d="M851.2,238.8V256h-4.8v-17.2h-6v-4.1h16.8v4.1H851.2z"/>
		<path fill="#FFFFFF" d="M874.4,250.5c0.8,1,1.9,1.5,3.2,1.5c1.3,0,2.4-0.5,3.2-1.5c0.8-1,1.2-2.3,1.2-4v-11.8h4.8v11.9
			c0,3.1-0.9,5.5-2.6,7.1c-1.7,1.7-3.9,2.5-6.6,2.5c-2.7,0-4.9-0.8-6.6-2.5c-1.7-1.7-2.6-4-2.6-7.1v-11.9h4.8v11.8
			C873.2,248.2,873.6,249.5,874.4,250.5z"/>
		<path fill="#FFFFFF" d="M896.7,239c-0.5,0.4-0.7,0.9-0.7,1.5c0,0.6,0.3,1.1,0.8,1.5s1.9,0.8,3.9,1.3c2,0.5,3.6,1.2,4.7,2.2
			c1.1,1,1.7,2.5,1.7,4.4c0,1.9-0.7,3.5-2.2,4.7c-1.4,1.2-3.3,1.8-5.7,1.8c-3.4,0-6.4-1.3-9.1-3.8l2.8-3.5c2.3,2,4.4,3,6.4,3
			c0.9,0,1.6-0.2,2.1-0.6c0.5-0.4,0.7-0.9,0.7-1.5s-0.3-1.1-0.8-1.5c-0.5-0.4-1.6-0.8-3.1-1.1c-2.5-0.6-4.3-1.4-5.4-2.3
			c-1.1-0.9-1.7-2.4-1.7-4.5s0.7-3.6,2.2-4.7c1.5-1.1,3.3-1.6,5.4-1.6c1.4,0,2.8,0.2,4.3,0.7c1.4,0.5,2.7,1.2,3.7,2.1l-2.4,3.5
			c-1.9-1.4-3.8-2.1-5.7-2.1C897.8,238.4,897.1,238.6,896.7,239z"/>
		<path fill="#FFFFFF" d="M921,251.8c2.3,0,4.3-0.9,5.7-2.8l3,3.1c-2.4,2.7-5.3,4.1-8.6,4.1c-3.3,0-6-1-8.1-3.1
			c-2.1-2.1-3.2-4.7-3.2-7.9c0-3.2,1.1-5.8,3.2-7.9s4.8-3.2,7.9-3.2c3.5,0,6.4,1.3,8.8,4l-3,3.4c-1.5-1.9-3.4-2.8-5.6-2.8
			c-1.8,0-3.3,0.6-4.6,1.8c-1.3,1.2-1.9,2.7-1.9,4.7c0,2,0.6,3.6,1.8,4.8S919.3,251.8,921,251.8z"/>
	</g>
</g>
</svg>
