<?xml version="1.0" encoding="UTF-8" standalone="no"?>
<svg width="525px" height="54px" viewBox="0 0 525 54" version="1.1" xmlns="http://www.w3.org/2000/svg" xmlns:xlink="http://www.w3.org/1999/xlink" xmlns:sketch="http://www.bohemiancoding.com/sketch/ns">
    <title>Slice 1</title>
    <description>Created with Sketch (http://www.bohemiancoding.com/sketch)</description>
    <defs></defs>
    <g id="Page-1" stroke="none" stroke-width="1" fill="none" fill-rule="evenodd" sketch:type="MSPage">
        <g id="sc-logo" sketch:type="MSLayerGroup">
            <g id="Group" transform="translate(0.000000, 1.000000)" fill="#00B0FF" sketch:type="MSShapeGroup">
                <path d="M10.8,-0.4 L57.7,-0.4 C60,-0.4 62,1.5 62,3.9 C62,6.2 60.1,8.2 57.7,8.2 L10.8,8.2 C8.5,8.2 6.5,6.3 6.5,3.9 C6.5,1.5 8.4,-0.4 10.8,-0.4 L10.8,-0.4 Z" id="Shape"></path>
                <path d="M4.4,14.5 L51.3,14.5 C53.6,14.5 55.6,16.4 55.6,18.8 C55.6,21.2 53.7,23.1 51.3,23.1 L4.4,23.1 C2.1,23.1 0.1,21.2 0.1,18.8 C0.1,16.4 2,14.5 4.4,14.5 L4.4,14.5 Z" id="Shape"></path>
                <path d="M15,29.5 L62,29.5 C64.3,29.5 66.3,31.4 66.3,33.8 C66.3,36.1 64.4,38.1 62,38.1 L15,38.1 C12.7,38.1 10.7,36.2 10.7,33.8 C10.8,31.4 12.7,29.5 15,29.5 L15,29.5 Z" id="Shape"></path>
                <path d="M8.6,44.4 L55.5,44.4 C57.8,44.4 59.8,46.3 59.8,48.7 C59.8,51.1 57.9,53 55.5,53 L8.6,53 C6.3,53 4.3,51.1 4.3,48.7 C4.3,46.3 6.3,44.4 8.6,44.4 L8.6,44.4 Z" id="Shape"></path>
            </g>
            <path d="M89.2,43.7 C88.8,43.4 88.3,42.7 88.3,41.9 C88.3,40.7 89.3,39.8 90.5,39.8 C90.9,39.8 91.4,39.9 91.7,40.2 C95.1,42.5 98.6,43.7 102.2,43.7 C106.2,43.7 109,41.7 109,38.5 L109,38.4 C109,35.1 105.1,33.8 100.7,32.6 C95.5,31.1 89.8,29.3 89.8,23.3 L89.8,23.2 C89.8,17.5 94.5,13.7 101.1,13.7 C104.6,13.7 108.5,14.8 111.7,16.5 C112.3,16.9 112.9,17.6 112.9,18.5 C112.9,19.7 111.9,20.6 110.7,20.6 C110.3,20.6 109.9,20.5 109.6,20.3 C106.8,18.7 103.8,17.7 101,17.7 C97.1,17.7 94.6,19.7 94.6,22.5 L94.6,22.6 C94.6,25.7 98.7,26.9 103.1,28.3 C108.2,29.8 113.7,31.8 113.7,37.8 L113.7,37.9 C113.7,44.2 108.5,47.8 101.9,47.8 C97.6,47.9 92.8,46.3 89.2,43.7 L89.2,43.7 Z" id="Shape" fill="#222222" sketch:type="MSShapeGroup"></path>
            <path d="M119.1,38.5 L119.1,18.5 L116.4,18.5 C115.2,18.5 114.2,17.5 114.2,16.3 C114.2,15.1 115.2,14.1 116.4,14.1 L119.1,14.1 L119.1,6.3 C119.1,5 120.1,3.8 121.5,3.8 C122.8,3.8 124,5 124,6.3 L124,14.1 L132.6,14.1 C133.8,14.1 134.8,15.1 134.8,16.3 C134.8,17.5 133.8,18.5 132.6,18.5 L124,18.5 L124,37.8 C124,41.8 126.2,43.3 129.6,43.3 C131.3,43.3 132.2,42.9 132.6,42.9 C133.8,42.9 134.7,43.9 134.7,45 C134.7,45.9 134.1,46.6 133.3,46.9 C131.9,47.5 130.4,47.8 128.4,47.8 C123.2,47.8 119.1,45.2 119.1,38.5 L119.1,38.5 Z" id="Shape" fill="#222222" sketch:type="MSShapeGroup"></path>
            <path d="M136,37.7 L136,37.6 C136,30.6 141.8,26.9 150.1,26.9 C154.3,26.9 157.3,27.5 160.3,28.3 L160.3,27.1 C160.3,21.2 156.7,18.1 150.4,18.1 C147.1,18.1 144.3,18.9 141.8,20 C141.5,20.1 141.2,20.2 140.9,20.2 C139.7,20.2 138.7,19.2 138.7,18.1 C138.7,17.1 139.4,16.3 140,16.1 C143.3,14.7 146.6,13.9 150.8,13.9 C155.5,13.9 159.1,15.1 161.5,17.5 C163.7,19.7 164.9,22.9 164.9,27.2 L164.9,45.3 C164.9,46.7 163.9,47.7 162.5,47.7 C161.1,47.7 160.1,46.7 160.1,45.4 L160.1,42.4 C157.8,45.4 154,48.1 148.1,48.1 C142.2,48 136,44.4 136,37.7 L136,37.7 Z M160.3,35.1 L160.3,31.9 C157.9,31.2 154.6,30.5 150.6,30.5 C144.4,30.5 140.9,33.2 140.9,37.3 L140.9,37.4 C140.9,41.6 144.7,44 149.2,44 C155.4,44.1 160.3,40.3 160.3,35.1 L160.3,35.1 Z" id="Shape" fill="#222222" sketch:type="MSShapeGroup"></path>
            <path d="M168.7,30.9 L168.7,30.8 C168.7,21.5 176,13.5 185.7,13.5 C191.2,13.5 194.9,15.6 197.9,18.3 C198.3,18.6 198.7,19.3 198.7,20 C198.7,21.3 197.6,22.4 196.3,22.4 C195.7,22.4 195.1,22.1 194.7,21.8 C192.3,19.6 189.6,17.8 185.7,17.8 C179,17.8 173.9,23.5 173.9,30.6 L173.9,30.7 C173.9,37.9 179.1,43.6 186.1,43.6 C189.9,43.6 192.9,41.9 195.3,39.6 C195.6,39.3 196.1,39 196.7,39 C197.9,39 198.9,40.1 198.9,41.2 C198.9,41.8 198.6,42.4 198.3,42.7 C195.2,45.8 191.4,48 185.8,48 C176,48 168.7,40.2 168.7,30.9 L168.7,30.9 Z" id="Shape" fill="#222222" sketch:type="MSShapeGroup"></path>
            <path d="M202.4,2.7 C202.4,1.4 203.5,0.2 204.8,0.2 C206.2,0.2 207.3,1.4 207.3,2.7 L207.3,33 L225.2,14.8 C225.8,14.2 226.4,13.8 227.1,13.8 C228.4,13.8 229.3,14.9 229.3,16.1 C229.3,16.9 229,17.4 228.3,18 L217.5,28.6 L229.3,43.5 C229.7,44.1 229.9,44.5 229.9,45.2 C229.9,46.5 228.9,47.5 227.5,47.5 C226.6,47.5 226,47.2 225.4,46.3 L214.2,32 L207.4,38.8 L207.4,45.1 C207.4,46.5 206.4,47.6 205,47.6 C203.6,47.6 202.5,46.5 202.5,45.1 L202.5,2.7 L202.4,2.7 Z" id="Shape" fill="#222222" sketch:type="MSShapeGroup"></path>
            <path d="M230.6,30.9 L230.6,30.8 C230.6,21.5 237.9,13.5 247.6,13.5 C253.1,13.5 256.8,15.6 259.8,18.3 C260.2,18.6 260.6,19.3 260.6,20 C260.6,21.3 259.5,22.4 258.2,22.4 C257.6,22.4 257,22.1 256.6,21.8 C254.2,19.6 251.5,17.8 247.6,17.8 C240.9,17.8 235.8,23.5 235.8,30.6 L235.8,30.7 C235.8,37.9 241,43.6 248,43.6 C251.8,43.6 254.8,41.9 257.2,39.6 C257.5,39.3 258,39 258.6,39 C259.8,39 260.8,40.1 260.8,41.2 C260.8,41.8 260.5,42.4 260.2,42.7 C257.1,45.8 253.3,48 247.7,48 C237.9,48 230.6,40.2 230.6,30.9 L230.6,30.9 Z" id="Shape" fill="#00B0FF" sketch:type="MSShapeGroup"></path>
            <path d="M261.4,30.9 L261.4,30.8 C261.4,21.5 268.7,13.5 278.7,13.5 C288.6,13.5 295.9,21.3 295.9,30.6 L295.9,30.7 C295.9,40 288.5,48 278.6,48 C268.6,48 261.4,40.2 261.4,30.9 L261.4,30.9 Z M290.8,30.9 L290.8,30.8 C290.8,23.7 285.5,17.9 278.5,17.9 C271.3,17.9 266.4,23.7 266.4,30.7 L266.4,30.8 C266.4,37.9 271.6,43.7 278.6,43.7 C285.8,43.6 290.8,37.8 290.8,30.9 L290.8,30.9 Z" id="Shape" fill="#00B0FF" sketch:type="MSShapeGroup"></path>
            <path d="M299.9,16.4 C299.9,15.1 301,13.9 302.3,13.9 C303.7,13.9 304.8,15 304.8,16.4 L304.8,19.8 C307,16.5 309.9,13.5 315.5,13.5 C320.9,13.5 324.3,16.4 326.1,20.1 C328.5,16.5 332,13.5 337.7,13.5 C345.3,13.5 350,18.6 350,26.8 L350,45.1 C350,46.5 348.9,47.6 347.6,47.6 C346.2,47.6 345.1,46.5 345.1,45.1 L345.1,28 C345.1,21.6 341.9,18 336.5,18 C331.5,18 327.4,21.7 327.4,28.2 L327.4,45.1 C327.4,46.5 326.3,47.6 324.9,47.6 C323.6,47.6 322.5,46.5 322.5,45.1 L322.5,27.8 C322.5,21.6 319.2,17.9 314,17.9 C308.8,17.9 304.8,22.2 304.8,28.3 L304.8,45 C304.8,46.4 303.8,47.5 302.4,47.5 C301,47.5 299.9,46.4 299.9,45 L299.9,16.4 L299.9,16.4 Z" id="Shape" fill="#00B0FF" sketch:type="MSShapeGroup"></path>
            <path d="M356,16.4 C356,15.1 357.1,13.9 358.4,13.9 C359.8,13.9 360.9,15 360.9,16.4 L360.9,19.8 C363.1,16.5 366,13.5 371.6,13.5 C377,13.5 380.4,16.4 382.2,20.1 C384.6,16.5 388.1,13.5 393.8,13.5 C401.4,13.5 406.1,18.6 406.1,26.8 L406.1,45.1 C406.1,46.5 405,47.6 403.7,47.6 C402.3,47.6 401.2,46.5 401.2,45.1 L401.2,28 C401.2,21.6 398,18 392.6,18 C387.6,18 383.5,21.7 383.5,28.2 L383.5,45.1 C383.5,46.5 382.4,47.6 381,47.6 C379.7,47.6 378.6,46.5 378.6,45.1 L378.6,27.8 C378.6,21.6 375.3,17.9 370.1,17.9 C364.9,17.9 360.9,22.2 360.9,28.3 L360.9,45 C360.9,46.4 359.9,47.5 358.5,47.5 C357.1,47.5 356,46.4 356,45 L356,16.4 L356,16.4 Z" id="Shape" fill="#00B0FF" sketch:type="MSShapeGroup"></path>
            <path d="M426.5,48 C417.4,48 410,41 410,30.8 L410,30.7 C410,21.2 416.7,13.5 425.9,13.5 C435.7,13.5 441.3,21.5 441.3,30.3 C441.3,31.6 440.2,32.6 439,32.6 L415,32.6 C415.7,39.8 420.8,43.8 426.6,43.8 C430.7,43.8 433.7,42.2 436.1,40 C436.5,39.7 436.9,39.4 437.5,39.4 C438.7,39.4 439.7,40.4 439.7,41.5 C439.7,42.1 439.4,42.7 438.9,43.1 C435.8,46 432.1,48 426.5,48 L426.5,48 Z M436.3,28.9 C435.8,22.9 432.3,17.6 425.7,17.6 C419.9,17.6 415.6,22.4 415,28.9 L436.3,28.9 L436.3,28.9 Z" id="Shape" fill="#00B0FF" sketch:type="MSShapeGroup"></path>
            <path d="M445.1,16.4 C445.1,15.1 446.2,13.9 447.5,13.9 C448.9,13.9 450,15 450,16.4 L450,22.6 C452.4,17.1 457.2,13.8 461.4,13.8 C462.9,13.8 463.8,14.9 463.8,16.3 C463.8,17.6 462.9,18.6 461.6,18.8 C455.2,19.6 450,24.4 450,33.9 L450,45.2 C450,46.5 449,47.7 447.6,47.7 C446.2,47.7 445.1,46.6 445.1,45.2 L445.1,16.4 L445.1,16.4 Z" id="Shape" fill="#00B0FF" sketch:type="MSShapeGroup"></path>
            <path d="M462.8,30.9 L462.8,30.8 C462.8,21.5 470.1,13.5 479.8,13.5 C485.3,13.5 489,15.6 492,18.3 C492.4,18.6 492.8,19.3 492.8,20 C492.8,21.3 491.7,22.4 490.4,22.4 C489.8,22.4 489.2,22.1 488.8,21.8 C486.4,19.6 483.7,17.8 479.8,17.8 C473.1,17.8 468,23.5 468,30.6 L468,30.7 C468,37.9 473.2,43.6 480.2,43.6 C484,43.6 487,41.9 489.4,39.6 C489.7,39.3 490.2,39 490.8,39 C492,39 493,40.1 493,41.2 C493,41.8 492.7,42.4 492.4,42.7 C489.3,45.8 485.5,48 479.9,48 C470.1,48 462.8,40.2 462.8,30.9 L462.8,30.9 Z" id="Shape" fill="#00B0FF" sketch:type="MSShapeGroup"></path>
            <path d="M510,48 C500.9,48 493.5,41 493.5,30.8 L493.5,30.7 C493.5,21.2 500.2,13.5 509.4,13.5 C519.2,13.5 524.8,21.5 524.8,30.3 C524.8,31.6 523.7,32.6 522.5,32.6 L498.6,32.6 C499.3,39.8 504.4,43.8 510.2,43.8 C514.3,43.8 517.3,42.2 519.7,40 C520.1,39.7 520.5,39.4 521.1,39.4 C522.3,39.4 523.3,40.4 523.3,41.5 C523.3,42.1 523,42.7 522.5,43.1 C519.4,46 515.7,48 510,48 L510,48 Z M519.8,28.9 C519.3,22.9 515.8,17.6 509.2,17.6 C503.4,17.6 499.1,22.4 498.5,28.9 L519.8,28.9 L519.8,28.9 Z" id="Shape" fill="#00B0FF" sketch:type="MSShapeGroup"></path>
        </g>
    </g>
</svg>